<svg width="15" height="14" viewBox="0 0 15 14" fill="none" xmlns="http://www.w3.org/2000/svg">
<path d="M12.5171 3.68044L6.81774 9.37977C6.2502 9.94731 4.56547 10.2102 4.18909 9.8338C3.81272 9.45743 4.06961 7.77272 4.63716 7.20517L10.3425 1.49985C10.4832 1.34635 10.6535 1.22296 10.8433 1.13711C11.0329 1.05126 11.2381 1.00473 11.4463 1.00034C11.6544 0.995962 11.8614 1.0338 12.0545 1.11159C12.2477 1.18938 12.4231 1.30552 12.5701 1.45296C12.7171 1.6004 12.8328 1.7761 12.91 1.96946C12.9873 2.16283 13.0246 2.36984 13.0196 2.578C13.0147 2.78617 12.9676 2.9912 12.8812 3.18067C12.7948 3.37014 12.671 3.54016 12.5171 3.68044Z" stroke="#BF8654" stroke-width="2" stroke-linecap="round" stroke-linejoin="round"/>
<path d="M6.37675 2.24658H3.38967C2.75589 2.24658 2.1481 2.49835 1.69995 2.9465C1.25181 3.39465 1 4.00247 1 4.63625V10.6104C1 11.2442 1.25181 11.852 1.69995 12.3001C2.1481 12.7483 2.75589 13.0001 3.38967 13.0001H9.96125C11.2815 13.0001 11.7535 11.9247 11.7535 10.6104V7.62333" stroke="#BF8654" stroke-width="2" stroke-linecap="round" stroke-linejoin="round"/>
</svg>
