<svg width="48" height="50" viewBox="0 0 48 50" fill="none" xmlns="http://www.w3.org/2000/svg">
<path d="M24.0547 0H23.9453C10.7207 0 0 11.1674 0 24.9431V25.0569C0 38.8326 10.7207 50 23.9453 50H24.0547C37.2793 50 48 38.8326 48 25.0569V24.9431C48 11.1674 37.2793 0 24.0547 0Z" fill="url(#paint0_linear_3089_31273)"/>
<path d="M31.4268 10.1699H16.5742C12.4709 10.1699 9.13281 13.6471 9.13281 17.9214V32.0755C9.13281 36.3497 12.4709 39.8269 16.5742 39.8269H31.4268C35.53 39.8269 38.8682 36.3497 38.8682 32.0755V17.9214C38.8682 13.6471 35.53 10.1699 31.4268 10.1699ZM11.7579 17.9214C11.7579 15.1554 13.9189 12.9044 16.5742 12.9044H31.4268C34.0821 12.9044 36.2431 15.1554 36.2431 17.9214V32.0755C36.2431 34.8415 34.0821 37.0925 31.4268 37.0925H16.5742C13.9189 37.0925 11.7579 34.8415 11.7579 32.0755V17.9214Z" fill="white"/>
<path d="M23.9999 32.2075C27.8156 32.2075 30.9217 28.9737 30.9217 24.9973C30.9217 21.0208 27.8173 17.7871 23.9999 17.7871C20.1825 17.7871 17.0781 21.0208 17.0781 24.9973C17.0781 28.9737 20.1825 32.2075 23.9999 32.2075ZM23.9999 20.5233C26.3694 20.5233 28.2966 22.5308 28.2966 24.999C28.2966 27.4672 26.3694 29.4747 23.9999 29.4747C21.6304 29.4747 19.7032 27.4672 19.7032 24.999C19.7032 22.5308 21.6304 20.5233 23.9999 20.5233Z" fill="white"/>
<path d="M31.5622 18.9518C32.5897 18.9518 33.4272 18.0812 33.4272 17.0091C33.4272 15.937 32.5914 15.0664 31.5622 15.0664C30.5331 15.0664 29.6973 15.937 29.6973 17.0091C29.6973 18.0812 30.5331 18.9518 31.5622 18.9518Z" fill="white"/>
<defs>
<linearGradient id="paint0_linear_3089_31273" x1="7.01258" y1="42.6952" x2="42.3735" y2="8.75043" gradientUnits="userSpaceOnUse">
<stop offset="0.03" stop-color="#734124"/>
<stop offset="0.71" stop-color="#C98E59"/>
</linearGradient>
</defs>
</svg>
