<svg width="22" height="18" viewBox="0 0 22 18" fill="none" xmlns="http://www.w3.org/2000/svg">
<path d="M1 9.47074C1 8.43111 1.94255 7.58838 3.10524 7.58838H4.15787C5.32056 7.58838 6.26311 8.43111 6.26311 9.47074V15.1178C6.26311 16.1575 5.32056 17.0002 4.15787 17.0002H3.10524C1.94255 17.0002 1 16.1575 1 15.1178V9.47074Z" stroke="#BF8654" stroke-width="2" stroke-linecap="round" stroke-linejoin="round"/>
<path d="M6.26367 9.47063C7.31629 9.47063 11.5268 7.11768 11.5268 2.41177C11.5268 0.529409 14.6847 0.529409 14.6847 2.41177C14.6847 4.29413 14.6847 5.23532 13.632 7.58827H19.9478C20.5291 7.58827 21.0004 8.00964 21.0004 8.52945V11.5785C21.0004 12.0395 20.8111 12.4845 20.4686 12.829L17.418 15.8977C17.0185 16.2996 16.4458 16.5295 15.8445 16.5295H8.71976C8.49207 16.5295 8.27042 16.4634 8.08821 16.3413L6.26367 15.1177" stroke="#BF8654" stroke-width="2" stroke-linecap="round" stroke-linejoin="round"/>
</svg>
