<svg width="48" height="50" viewBox="0 0 48 50" fill="none" xmlns="http://www.w3.org/2000/svg">
<rect width="48" height="50" rx="24" fill="url(#paint0_linear_3089_31271)"/>
<path d="M35.251 11.25H12.7486C12.2318 11.25 11.7361 11.4639 11.3706 11.8446C11.0051 12.2253 10.7998 12.7416 10.7998 13.28V36.72C10.7998 37.2584 11.0051 37.7747 11.3706 38.1554C11.7361 38.5361 12.2318 38.75 12.7486 38.75H35.251C35.7678 38.75 36.2635 38.5361 36.629 38.1554C36.9945 37.7747 37.1998 37.2584 37.1998 36.72V13.28C37.1998 12.7416 36.9945 12.2253 36.629 11.8446C36.2635 11.4639 35.7678 11.25 35.251 11.25ZM18.6685 34.6766H14.6993V21.5434H18.6685V34.6766ZM16.6811 19.7234C16.2309 19.7208 15.7915 19.5793 15.4184 19.3168C15.0453 19.0542 14.7552 18.6825 14.5848 18.2484C14.4143 17.8143 14.3711 17.3373 14.4606 16.8777C14.5502 16.4181 14.7684 15.9964 15.0878 15.6658C15.4072 15.3352 15.8134 15.1106 16.2552 15.0203C16.697 14.93 17.1546 14.9781 17.5703 15.1584C17.9859 15.3388 18.3409 15.6433 18.5905 16.0336C18.8401 16.424 18.9732 16.8826 18.9728 17.3516C18.9771 17.6656 18.9206 17.9772 18.8067 18.268C18.6929 18.5588 18.524 18.8227 18.3101 19.044C18.0963 19.2654 17.8418 19.4396 17.562 19.5563C17.2821 19.673 16.9825 19.7299 16.6811 19.7234ZM33.2985 34.688H29.3311V27.5132C29.3311 25.3972 28.4676 24.7441 27.353 24.7441C26.176 24.7441 25.021 25.6684 25.021 27.5667V34.688H21.0518V21.553H24.8688V23.3729H24.9201C25.3033 22.5651 26.6453 21.1844 28.6931 21.1844C30.9078 21.1844 33.3003 22.5536 33.3003 26.5641L33.2985 34.688Z" fill="white"/>
<defs>
<linearGradient id="paint0_linear_3089_31271" x1="53" y1="-3.97518e-06" x2="4" y2="38.5" gradientUnits="userSpaceOnUse">
<stop offset="0.29" stop-color="#C98E59"/>
<stop offset="0.97" stop-color="#734124"/>
</linearGradient>
</defs>
</svg>
