<svg width="25" height="24" viewBox="0 0 25 24" fill="none" xmlns="http://www.w3.org/2000/svg">
<g id="icons8-apple-logo 1" clip-path="url(#clip0_10_5341)">
<g id="Vector">
<path d="M17.9862 -7.05128e-06C16.6249 0.0918678 15.168 0.901868 14.2662 1.99499C13.4768 2.95687 12.8149 4.36874 13.0662 5.83499C12.8412 5.76562 12.6368 5.75812 12.3912 5.66999C11.7218 5.43187 10.9568 5.17499 10.0062 5.17499C8.11803 5.17499 6.18491 6.29812 4.96616 8.17499C3.19241 10.9012 3.54866 15.6994 6.24116 19.8C6.71554 20.52 7.26866 21.3056 7.95116 21.93C8.63366 22.5544 9.45866 23.0306 10.4262 23.04C11.253 23.0494 11.8287 22.7737 12.3462 22.545C12.8637 22.3162 13.3455 22.1137 14.2512 22.11C14.2568 22.11 14.2605 22.11 14.2662 22.11C15.168 22.1025 15.6349 22.3012 16.1412 22.53C16.6474 22.7587 17.2174 23.0475 18.0462 23.04C19.0324 23.0325 19.8705 22.4925 20.5662 21.825C21.2618 21.1575 21.8337 20.3381 22.3062 19.62C22.983 18.5887 23.2549 18.0262 23.7762 16.875C23.8305 16.755 23.8324 16.6162 23.7799 16.4944C23.7293 16.3725 23.6299 16.2769 23.5062 16.23C21.7999 15.585 20.8268 14.0756 20.6862 12.48C20.5455 10.8844 21.2205 9.24187 22.9212 8.30999C23.0468 8.24249 23.1349 8.12437 23.1649 7.98562C23.193 7.84687 23.1593 7.70062 23.0712 7.58999C21.8505 6.07312 20.133 5.17499 18.4512 5.17499C17.3787 5.17499 16.5912 5.42812 15.9462 5.66999C15.8393 5.71124 15.7605 5.70749 15.6612 5.74499C16.3155 5.39999 16.893 4.92187 17.3262 4.36499C18.1137 3.35437 18.7212 1.91624 18.4962 0.404993C18.4587 0.157493 18.2355 -0.0187571 17.9862 -7.05128e-06ZM17.4762 1.13999C17.4443 2.10937 17.1124 3.05812 16.5612 3.76499C15.9837 4.50749 15.0124 5.02124 14.0712 5.17499C14.088 4.24312 14.4555 3.27749 15.0162 2.59499C15.6049 1.88249 16.5799 1.36874 17.4762 1.13999ZM10.0062 6.13499C10.4262 6.13499 11.4012 6.33562 12.0612 6.56999C12.7212 6.80437 13.4168 7.07999 14.2362 7.07999C15.0368 7.07999 15.6705 6.80249 16.2912 6.56999C16.9118 6.33749 17.5305 6.13499 18.4512 6.13499C19.653 6.13499 20.9524 6.75937 21.9762 7.84499C20.3374 9.00187 19.5705 10.8056 19.7262 12.555C19.8818 14.3231 20.9468 16.0012 22.6962 16.875C22.6937 16.8805 22.6912 16.8859 22.6887 16.8913C22.3141 17.7072 22.0644 18.2512 21.5112 19.095C21.0518 19.7944 20.5062 20.5594 19.9062 21.135C19.3062 21.7106 18.6705 22.0744 18.0312 22.08C17.4143 22.0856 17.0637 21.9019 16.5312 21.66C15.9987 21.4181 15.3105 21.1406 14.2512 21.15C13.1937 21.1556 12.4962 21.4219 11.9562 21.66C11.4162 21.8981 11.0618 22.0856 10.4412 22.08C9.78491 22.0744 9.17554 21.7556 8.59616 21.225C8.01679 20.6944 7.49366 19.9706 7.03616 19.275C4.51616 15.435 4.31366 10.9237 5.76116 8.69999C6.82241 7.06687 9.58616 6.13499 10.0062 6.13499Z" fill="white"/>
<path d="M10.0062 6.13499C10.4262 6.13499 11.4012 6.33562 12.0612 6.56999C12.7212 6.80437 13.4168 7.07999 14.2362 7.07999C15.0368 7.07999 15.6705 6.80249 16.2912 6.56999C16.9118 6.33749 17.5305 6.13499 18.4512 6.13499C19.653 6.13499 20.9524 6.75937 21.9762 7.84499C20.3374 9.00187 19.5705 10.8056 19.7262 12.555C19.8818 14.3231 20.9468 16.0012 22.6962 16.875L22.6887 16.8913C22.3141 17.7072 22.0644 18.2512 21.5112 19.095C21.0518 19.7944 20.5062 20.5594 19.9062 21.135C19.3062 21.7106 18.6705 22.0744 18.0312 22.08C17.4143 22.0856 17.0637 21.9019 16.5312 21.66C15.9987 21.4181 15.3105 21.1406 14.2512 21.15C13.1937 21.1556 12.4962 21.4219 11.9562 21.66C11.4162 21.8981 11.0618 22.0856 10.4412 22.08C9.78491 22.0744 9.17554 21.7556 8.59616 21.225C8.01679 20.6944 7.49366 19.9706 7.03616 19.275C4.51616 15.435 4.31366 10.9237 5.76116 8.69999C6.82241 7.06687 9.58616 6.13499 10.0062 6.13499Z" fill="white"/>
<path d="M17.4762 1.13999C17.4443 2.10937 17.1124 3.05812 16.5612 3.76499C15.9837 4.50749 15.0124 5.02124 14.0712 5.17499C14.088 4.24312 14.4555 3.27749 15.0162 2.59499C15.6049 1.88249 16.5799 1.36874 17.4762 1.13999Z" fill="white"/>
</g>
</g>
<defs>
<clipPath id="clip0_10_5341">
<rect width="24" height="24" fill="white" transform="translate(0.5)"/>
</clipPath>
</defs>
</svg>
