<svg width="118" height="52" viewBox="0 0 118 52" fill="none" xmlns="http://www.w3.org/2000/svg">
<path d="M6.59394 29.2622L7.14916 31.0523L0.871094 51.1072H1.82311L5.08363 40.6398H10.1652L13.4257 51.1072H16.5309L9.6976 29.2622H6.59394ZM5.39585 39.7296L7.62439 32.5708L9.85294 39.7296H5.39431H5.39585Z" fill="white"/>
<path d="M20.5741 29.2622H17.498V51.1072H20.5741V29.2622Z" fill="white"/>
<path d="M43.2142 29.2622H23.5742V30.4925L35.1244 30.2194V51.1072H38.2004V30.2194L43.2142 30.4925V29.2622Z" fill="white"/>
<path d="M53.5173 28.9595C48.2651 28.9595 42.5977 33.239 42.5977 40.155C42.5977 47.0711 48.2651 51.4113 53.5173 51.4113C58.7696 51.4113 64.4678 47.1075 64.4678 40.155C64.4678 33.2026 58.7834 28.9595 53.5173 28.9595ZM46.1658 40.1247C46.1658 33.8276 49.9815 29.9304 53.5173 29.9304C57.0532 29.9304 60.8997 33.6637 60.8997 39.9123C60.8997 46.1609 57.067 50.4404 53.5173 50.4404C51.7302 50.4404 49.9231 49.4634 48.5558 47.7598C47.4654 46.4006 46.1658 43.9718 46.1658 40.1247Z" fill="white"/>
<path d="M78.2175 45.2819C78.2175 49.5947 75.323 50.5004 72.896 50.5004C69.6263 50.5004 68.4666 49.1351 68.4666 45.2819V29.2622H65.3906V45.4032C65.3906 50.4064 68.3205 51.4106 73.0498 51.4106C76.9209 51.4106 79.1403 49.1776 79.1403 45.2819V29.2622H78.2175V45.2819Z" fill="white"/>
<path d="M91.1975 29.9304C94.1028 29.9304 96.3805 32.1406 97.1403 35.6965L97.191 35.9377H100.292L100.201 35.563C99.1428 31.2274 94.7626 28.9595 90.9822 28.9595C85.73 28.9595 80.0625 33.239 80.0625 40.155C80.0625 47.0711 85.73 51.4113 90.9822 51.4113C94.5488 51.4113 97.3941 49.914 99.2089 47.0832L99.3827 46.8117L98.5522 46.3566L98.403 46.6221C96.8158 49.4407 93.8767 50.4404 91.8435 50.4404C87.7617 50.4404 83.6306 46.8966 83.6306 40.1247C83.6306 37.1741 84.4996 34.5011 86.0791 32.5988C87.4879 30.9028 89.3535 29.9304 91.1975 29.9304Z" fill="white"/>
<path d="M113.959 29.2622V39.7296H104.517V29.2622H101.441V51.1072H104.517V40.6398H113.959V51.1072H117.035V29.2622H113.959Z" fill="white"/>
<g opacity="0.96">
<path d="M43.5001 0.175559C44.2214 0.111844 45.1396 0.603354 45.1657 0.888553C46.6514 10.8007 54.9873 19.246 65.3026 14.3126C60.5195 22.4863 48.1356 23.8729 40.0596 19.6798C30.2164 14.8481 32.6511 1.39827 43.5001 0.177072V0.175559Z" fill="url(#paint0_linear_3117_578)"/>
<g style="mix-blend-mode:darken">
<path d="M48.3668 18.0642C44.0235 17.6698 39.7494 16.8794 35.6061 15.5186C35.4953 15.4822 35.3861 15.4443 35.2754 15.4079C36.292 17.1039 37.8731 18.6042 40.0601 19.6768C48.1361 23.8698 60.52 22.4833 65.3031 14.3096C65.3031 14.3096 61.0382 18.5405 52.6485 18.319C51.2182 18.3024 49.7879 18.1916 48.3668 18.0627V18.0642Z" fill="url(#paint1_linear_3117_578)"/>
</g>
<path d="M77.1161 21.7093C76.4209 21.9096 75.4243 21.6001 75.3428 21.327C71.947 11.8836 62.1162 5.18297 52.959 11.9853C56.0534 3.05612 67.9359 -0.660566 76.6793 1.91684C87.2822 4.78551 87.5237 18.4462 77.1161 21.7093Z" fill="url(#paint2_linear_3117_578)"/>
<g style="mix-blend-mode:lighten">
<path d="M68.841 5.07977C73.1812 4.63984 77.5276 4.60343 81.8585 5.14956C81.9739 5.16473 82.0892 5.1799 82.2046 5.19507C80.8758 3.72357 79.0317 2.55395 76.6755 1.91529C67.932 -0.662119 56.0511 3.05305 52.9551 11.9837C52.9551 11.9837 56.3125 7.02003 64.5884 5.64258C65.9942 5.38621 67.4199 5.22389 68.841 5.07977Z" fill="url(#paint3_linear_3117_578)"/>
</g>
</g>
<defs>
<linearGradient id="paint0_linear_3117_578" x1="64.6904" y1="16.4419" x2="34.1926" y2="7.76249" gradientUnits="userSpaceOnUse">
<stop offset="0.03" stop-color="#7B64D6"/>
<stop offset="0.91" stop-color="#140F24"/>
</linearGradient>
<linearGradient id="paint1_linear_3117_578" x1="64.2271" y1="19.6608" x2="33.0404" y2="13.4461" gradientUnits="userSpaceOnUse">
<stop stop-color="#1F1837"/>
<stop offset="1" stop-color="#765FCC" stop-opacity="0"/>
</linearGradient>
<linearGradient id="paint2_linear_3117_578" x1="53.1362" y1="9.78897" x2="84.7711" y2="12.3469" gradientUnits="userSpaceOnUse">
<stop offset="0.09" stop-color="#140F24"/>
<stop offset="0.97" stop-color="#7B64D6"/>
</linearGradient>
<linearGradient id="paint3_linear_3117_578" x1="52.9566" y1="6.54976" x2="84.7746" y2="6.54976" gradientUnits="userSpaceOnUse">
<stop offset="0.32" stop-color="#6955B7"/>
<stop offset="0.73" stop-color="#1E1734" stop-opacity="0.1"/>
</linearGradient>
</defs>
</svg>
