<svg width="248" height="55" viewBox="0 0 248 55" fill="none" xmlns="http://www.w3.org/2000/svg">
<path d="M12.0794 31.9023C15.123 31.9023 17.5092 34.2066 18.3052 37.9137L18.3583 38.1651H21.6066L21.5115 37.7745C20.403 33.2545 15.8142 30.8901 11.8538 30.8901C6.35144 30.8901 0.414062 35.3516 0.414062 42.5618C0.414062 49.7719 6.67047 54.2966 12.4661 54.2966C14.7073 54.2966 16.8035 53.5343 18.6999 52.0319L20.7462 53.9803H21.5212V44.1749H18.2987V51.2111C16.7262 52.5301 14.9361 53.2845 13.3683 53.2845C8.78923 53.2845 4.15211 49.59 4.15211 42.5301C4.15211 39.4541 5.06246 36.6674 6.71719 34.6842C8.19308 32.9161 10.1475 31.9023 12.0794 31.9023Z" fill="white"/>
<path d="M26.1951 31.2065H22.9727V53.9804H34.8958V52.7041L26.1951 52.9888V31.2065Z" fill="white"/>
<path d="M45.6897 30.8901C40.1874 30.8901 34.25 35.3516 34.25 42.5618C34.25 49.7719 40.1874 54.2966 45.6897 54.2966C51.1921 54.2966 57.1617 49.8099 57.1617 42.5618C57.1617 35.3136 51.2066 30.8901 45.6897 30.8901ZM37.988 42.5301C37.988 35.9652 41.9855 31.9023 45.6897 31.9023C49.3939 31.9023 53.4236 35.7944 53.4236 42.3087C53.4236 48.823 49.4084 53.2845 45.6897 53.2845C43.8175 53.2845 41.9243 52.266 40.4919 50.4899C39.3495 49.0729 37.988 46.5409 37.988 42.5301Z" fill="white"/>
<path d="M70.0343 41.9893C72.9232 40.8522 74.0285 38.3787 73.7965 36.3449C73.5033 33.7876 71.1251 31.2065 66.4751 31.2065H58.4512V53.9804H67.4418C72.2659 53.9804 74.789 50.8775 74.789 47.8125C74.789 45.4497 73.3067 42.8829 70.0359 41.9893H70.0343ZM69.1626 40.2006C68.7066 40.8585 67.8704 41.643 66.4751 41.643H61.6736V32.1539H66.4751C68.9596 32.1539 70.0923 34.6131 70.0923 36.8984C70.0923 38.1621 69.762 39.334 69.1626 40.2006ZM61.6736 42.5935H67.4418C69.9215 42.5935 71.051 45.2995 71.051 47.8125C71.051 50.3255 69.8119 53.0315 67.4418 53.0315H61.6736V42.5935Z" fill="white"/>
<path d="M81.6341 31.2065L82.2157 33.0727L75.6387 53.9804H76.636L80.0518 43.0679H85.3753L88.7911 53.9804H92.0442L84.8855 31.2065H81.6341ZM80.3789 42.119L82.7136 34.6558L85.0483 42.119H80.3773H80.3789Z" fill="white"/>
<path d="M96.2811 31.2065H93.0586V53.9804H108.043V52.7041L96.2811 52.9888V31.2065Z" fill="white"/>
<path d="M123.317 31.2065H115.293V53.9804H118.515V44.9974H123.317C125.581 44.9974 127.487 44.2525 128.827 42.8402C130.016 41.5876 130.672 39.9049 130.672 38.102C130.672 34.7808 128.37 31.2065 123.317 31.2065ZM118.515 32.1555H123.317C125.801 32.1555 126.934 35.2378 126.934 38.102C126.934 39.6898 126.599 41.1654 125.988 42.255C125.531 43.0727 124.696 44.0485 123.317 44.0485H118.515V32.1555Z" fill="white"/>
<path d="M147.337 37.4187C147.042 34.3269 144.663 31.2065 140.01 31.2065H131.986V53.9804H135.209V44.9974H138.908L143.42 53.9804H146.713L142.124 44.7475C146.091 43.8081 147.614 40.3382 147.337 37.4203V37.4187ZM135.209 32.1555H140.01C142.495 32.1555 143.627 35.2378 143.627 38.102C143.627 39.6898 143.292 41.1654 142.682 42.255C142.224 43.0727 141.389 44.0485 140.01 44.0485H135.209V32.1555Z" fill="white"/>
<path d="M159.955 30.8901C154.453 30.8901 148.516 35.3516 148.516 42.5618C148.516 49.7719 154.453 54.2966 159.955 54.2966C165.458 54.2966 171.427 49.8099 171.427 42.5618C171.427 35.3136 165.472 30.8901 159.955 30.8901ZM152.254 42.5301C152.254 35.9652 156.251 31.9023 159.955 31.9023C163.66 31.9023 167.689 35.7944 167.689 42.3087C167.689 48.823 163.674 53.2845 159.955 53.2845C158.083 53.2845 156.19 52.266 154.758 50.4899C153.615 49.0729 152.254 46.5409 152.254 42.5301Z" fill="white"/>
<path d="M180.741 31.2065H172.717V53.9804H175.939V44.9974H180.741C183.004 44.9974 184.911 44.2525 186.251 42.8402C187.44 41.5876 188.096 39.9049 188.096 38.102C188.096 34.7808 185.794 31.2065 180.741 31.2065ZM175.939 32.1555H180.741C183.225 32.1555 184.358 35.2378 184.358 38.102C184.358 39.6898 184.023 41.1654 183.412 42.255C182.955 43.0727 182.12 44.0485 180.741 44.0485H175.939V32.1555Z" fill="white"/>
<path d="M192.631 43.0679H198.947V41.7869L192.631 42.0716V32.1997L200.139 32.4844V31.2065H189.408V53.9804H201.331V52.7041L192.631 52.9888V43.0679Z" fill="white"/>
<path d="M218.133 37.4187C217.839 34.3269 215.46 31.2065 210.807 31.2065H202.783V53.9804H206.006V44.9974H209.705L214.216 53.9804H217.51L212.921 44.7475C216.888 43.8081 218.411 40.3382 218.133 37.4203V37.4187ZM206.006 32.1555H210.807C213.292 32.1555 214.424 35.2378 214.424 38.102C214.424 39.6898 214.089 41.1654 213.479 42.255C213.021 43.0727 212.186 44.0485 210.807 44.0485H206.006V32.1555Z" fill="white"/>
<path d="M217.541 32.4892L222.794 32.2045V53.9804H226.016V32.2045L231.269 32.4892V31.2065H217.541V32.4892Z" fill="white"/>
<path d="M246.764 31.2065L240.907 42.5207L235.174 31.2065H231.871L238.229 43.4918V53.9804H241.451V43.4918L247.809 31.2065H246.764Z" fill="white"/>
<path d="M107.182 0.208649C107.954 0.140643 108.936 0.665707 108.964 0.967778C110.554 11.526 119.475 20.5186 130.516 15.2647C125.397 23.9694 112.143 25.4466 103.498 20.9804C92.9643 15.8357 95.5696 1.51024 107.18 0.208649H107.182Z" fill="url(#paint0_linear_3117_520)"/>
<g style="mix-blend-mode:darken">
<path d="M112.392 19.2614C107.744 18.8407 103.169 17.9993 98.7353 16.5507C98.6177 16.5127 98.4985 16.4716 98.3809 16.4336C99.4684 18.2397 101.16 19.8371 103.501 20.9805C112.144 25.4451 125.4 23.9696 130.518 15.2649C130.518 15.2649 125.954 19.7706 116.976 19.535C115.445 19.5176 113.915 19.399 112.394 19.2614H112.392Z" fill="url(#paint1_linear_3117_520)"/>
</g>
<path d="M143.157 23.1437C142.412 23.3572 141.346 23.0283 141.258 22.7357C137.624 12.6772 127.104 5.54142 117.303 12.7864C120.615 3.27668 133.331 -0.681865 142.689 2.06366C154.037 5.11757 154.295 19.6676 143.157 23.1422V23.1437Z" fill="url(#paint2_linear_3117_520)"/>
<g style="mix-blend-mode:darken">
<path d="M134.306 5.43392C138.952 4.96579 143.603 4.92626 148.239 5.50826C148.363 5.52407 148.485 5.53989 148.609 5.55728C147.187 3.99158 145.213 2.74376 142.691 2.06528C133.333 -0.680236 120.617 3.27673 117.305 12.788C117.305 12.788 120.898 7.50255 129.755 6.0349C131.26 5.76288 132.785 5.58891 134.305 5.4355L134.306 5.43392Z" fill="url(#paint3_linear_3117_520)"/>
</g>
<defs>
<linearGradient id="paint0_linear_3117_520" x1="129.866" y1="17.5108" x2="97.2491" y2="8.18302" gradientUnits="userSpaceOnUse">
<stop offset="0.16" stop-color="#DDA07D"/>
<stop offset="0.44" stop-color="#C98E59"/>
<stop offset="1" stop-color="#7C4D24"/>
</linearGradient>
<linearGradient id="paint1_linear_3117_520" x1="129.373" y1="20.9263" x2="96.006" y2="14.2447" gradientUnits="userSpaceOnUse">
<stop offset="0.11" stop-color="#7C4D24"/>
<stop offset="0.44" stop-color="#C98E59"/>
<stop offset="0.93" stop-color="#DDA07D"/>
</linearGradient>
<linearGradient id="paint2_linear_3117_520" x1="117.495" y1="10.4485" x2="151.35" y2="13.1994" gradientUnits="userSpaceOnUse">
<stop offset="0.16" stop-color="#DDA07D"/>
<stop offset="0.44" stop-color="#C98E59"/>
<stop offset="1" stop-color="#7C4D24"/>
</linearGradient>
<linearGradient id="paint3_linear_3117_520" x1="117.306" y1="6.99805" x2="151.358" y2="6.99805" gradientUnits="userSpaceOnUse">
<stop offset="0.11" stop-color="#7C4D24"/>
<stop offset="0.44" stop-color="#C98E59"/>
<stop offset="0.93" stop-color="#DDA07D"/>
</linearGradient>
</defs>
</svg>
