<svg width="209" height="53" viewBox="0 0 209 53" fill="none" xmlns="http://www.w3.org/2000/svg">
<path d="M12.0138 31.0219C14.9516 31.0219 17.2549 33.2461 18.0232 36.8243L18.0745 37.0671H21.2098L21.1181 36.69C20.0481 32.3271 15.6188 30.0449 11.796 30.0449C6.48493 30.0449 0.753906 34.3528 0.753906 41.3109C0.753906 48.2689 6.79286 52.6379 12.387 52.6379C14.5503 52.6379 16.5737 51.9021 18.4042 50.4519L20.3793 52.3326H21.1274V42.868H18.017V49.6596C16.499 50.9327 14.7712 51.6609 13.2579 51.6609C8.83799 51.6609 4.36204 48.0949 4.36204 41.2803C4.36204 38.3112 5.24074 35.6214 6.83796 33.7071C8.26255 32.0004 10.149 31.0219 12.0138 31.0219Z" fill="white"/>
<path d="M25.6397 30.3496H22.5293V52.3319H34.038V51.1L25.6397 51.3748V30.3496Z" fill="white"/>
<path d="M44.4562 30.0449C39.1451 30.0449 33.4141 34.3528 33.4141 41.3109C33.4141 48.2689 39.1451 52.6379 44.4562 52.6379C49.7673 52.6379 55.5294 48.3071 55.5294 41.3109C55.5294 34.3147 49.7813 30.0449 44.4562 30.0449ZM37.0222 41.2803C37.0222 34.9436 40.8807 31.0219 44.4562 31.0219C48.0317 31.0219 51.9213 34.7788 51.9213 41.0666C51.9213 47.3545 48.0457 51.6609 44.4562 51.6609C42.649 51.6609 40.8216 50.6778 39.439 48.9635C38.3364 47.5957 37.0222 45.1517 37.0222 41.2803Z" fill="white"/>
<path d="M67.952 40.7576C70.7405 39.66 71.8074 37.2725 71.5835 35.3094C71.3004 32.8409 69.0049 30.3496 64.5165 30.3496H56.7715V52.3319H65.4497C70.106 52.3319 72.5415 49.3368 72.5415 46.3784C72.5415 44.0977 71.1107 41.6201 67.9536 40.7576H67.952ZM67.1106 39.0311C66.6705 39.6661 65.8634 40.4233 64.5165 40.4233H59.8819V31.264H64.5165C66.9147 31.264 68.008 33.6378 68.008 35.8437C68.008 37.0634 67.6892 38.1946 67.1106 39.0311ZM59.8819 41.3408H65.4497C67.8432 41.3408 68.9334 43.9527 68.9334 46.3784C68.9334 48.8041 67.7374 51.416 65.4497 51.416H59.8819V41.3408Z" fill="white"/>
<path d="M79.1522 30.3496L79.7137 32.1509L73.3652 52.3319H74.3279L77.625 41.7987H82.7635L86.0606 52.3319H89.2006L82.2907 30.3496H79.1522ZM77.9407 40.8828L80.1942 33.679L82.4478 40.8828H77.9392H77.9407Z" fill="white"/>
<path d="M93.2862 30.3496H90.1758V52.3319H104.717V51.1L93.2862 51.3748V30.3496Z" fill="white"/>
<path d="M111.641 52.3319H114.751V41.7987H120.848V40.5622L114.751 40.837V31.3083L121.998 31.5831V30.3496H111.641V52.3319Z" fill="white"/>
<path d="M136.059 46.47C136.059 50.81 133.132 51.7213 130.677 51.7213C127.371 51.7213 126.198 50.3474 126.198 46.47V30.3496H123.088V46.5921C123.088 51.6267 126.051 52.6372 130.833 52.6372C134.747 52.6372 136.992 50.3902 136.992 46.47V30.3496H136.059V46.47Z" fill="white"/>
<path d="M150.023 49.9688L140.766 30.3496H138.271H138.079H137.768V52.3319H138.701V32.7127L147.957 52.3319H150.452H150.645H150.956V30.3496H150.023V49.9688Z" fill="white"/>
<path d="M159.788 30.3496H152.043V52.3319H159.788C162.391 52.3319 164.575 51.129 166.101 48.856C167.435 46.8684 168.169 44.2 168.169 41.3423C168.169 38.4846 167.433 35.8147 166.101 33.8271C164.573 31.5525 162.39 30.3511 159.788 30.3511V30.3496ZM155.153 31.2655H159.788C162.922 31.2655 164.563 36.3337 164.563 41.3408C164.563 44.0199 164.119 46.5112 163.317 48.3568C162.709 49.7521 161.605 51.416 159.788 51.416H155.153V31.2655Z" fill="white"/>
<path d="M172.542 30.3496H169.432V52.3319H172.542V30.3496Z" fill="white"/>
<path d="M185.884 49.9688L176.627 30.3496H174.133H173.94H173.629V52.3319H174.562V32.7127L183.819 52.3319H186.313H186.506H186.817V30.3496H185.884V49.9688Z" fill="white"/>
<path d="M205.015 49.6586C203.497 50.9317 201.769 51.6599 200.256 51.6599C195.836 51.6599 191.36 48.0939 191.36 41.2794C191.36 38.3102 192.239 35.6204 193.836 33.7061C195.261 31.9995 197.147 31.0209 199.012 31.0209C201.95 31.0209 204.253 33.2451 205.021 36.8234L205.073 37.0661H208.208L208.116 36.689C207.046 32.3261 202.617 30.0439 198.794 30.0439C193.483 30.0439 187.752 34.3519 187.752 41.3099C187.752 48.2679 193.791 52.6369 199.385 52.6369C201.548 52.6369 203.572 51.9011 205.402 50.4509L207.377 52.3316H208.125V42.867H205.015V49.6586Z" fill="white"/>
<path d="M87.8001 0.182463C88.5606 0.115295 89.528 0.632795 89.556 0.930472C91.1236 11.3309 99.9122 20.191 110.788 15.0144C105.746 23.5906 92.6866 25.0454 84.1718 20.6459C73.7937 15.5762 76.3598 1.46477 87.8001 0.182463Z" fill="url(#paint0_linear_3117_542)"/>
<path style="mix-blend-mode:lighten" d="M93.0624 18.9527C88.4823 18.539 83.9768 17.71 79.6081 16.2827C79.4915 16.2446 79.3749 16.2049 79.2598 16.1667C80.3313 17.9467 81.9985 19.519 84.3049 20.6456C92.8198 25.0451 105.877 23.5903 110.921 15.0142C110.921 15.0142 106.425 19.4534 97.5788 19.2213C96.0718 19.2045 94.5632 19.0885 93.064 18.9527H93.0624Z" fill="url(#paint1_linear_3117_542)"/>
<path d="M123.239 22.7756C122.505 22.9863 121.456 22.6611 121.37 22.3741C117.788 12.4653 107.424 5.43554 97.7695 12.5737C101.032 3.20372 113.56 -0.695081 122.779 2.00997C133.958 5.0188 134.213 19.3531 123.239 22.7756Z" fill="url(#paint2_linear_3117_542)"/>
<path style="mix-blend-mode:darken" d="M114.518 5.32802C119.093 4.867 123.678 4.82731 128.244 5.40129C128.366 5.41656 128.488 5.43335 128.61 5.44862C127.208 3.90527 125.264 2.6764 122.779 2.00777C113.56 -0.69728 101.032 3.20153 97.7695 12.5715C97.7695 12.5715 101.309 7.36444 110.036 5.91879C111.518 5.65012 113.022 5.47915 114.519 5.32802H114.518Z" fill="url(#paint3_linear_3117_542)"/>
<defs>
<linearGradient id="paint0_linear_3117_542" x1="110.146" y1="17.2347" x2="78.0136" y2="8.04532" gradientUnits="userSpaceOnUse">
<stop stop-color="#1F2247"/>
<stop offset="0.54" stop-color="#274590"/>
<stop offset="0.93" stop-color="#29ABE2"/>
</linearGradient>
<linearGradient id="paint1_linear_3117_542" x1="109.789" y1="20.6036" x2="76.9177" y2="14.0212" gradientUnits="userSpaceOnUse">
<stop offset="0.32" stop-color="#29ABE2"/>
<stop offset="0.7" stop-color="#29A0D9" stop-opacity="0"/>
</linearGradient>
<linearGradient id="paint2_linear_3117_542" x1="97.9554" y1="10.271" x2="131.308" y2="12.9811" gradientUnits="userSpaceOnUse">
<stop offset="0.07" stop-color="#29ABE2"/>
<stop offset="0.46" stop-color="#274590"/>
<stop offset="1" stop-color="#1F2247"/>
</linearGradient>
<linearGradient id="paint3_linear_3117_542" x1="126.246" y1="4.30981" x2="89.9671" y2="9.182" gradientUnits="userSpaceOnUse">
<stop stop-color="#2759A0" stop-opacity="0"/>
<stop offset="0.57" stop-color="#212956"/>
</linearGradient>
</defs>
</svg>
