<svg width="127" height="54" viewBox="0 0 127 54" fill="none" xmlns="http://www.w3.org/2000/svg">
<path d="M13.5438 51.1221L4.03663 31.0115H1.47456H1.27649H0.957031V53.5444H1.91541V33.4338L11.4225 53.5444H13.9846H14.1827H14.5021V31.0115H13.5438V51.1221Z" fill="white"/>
<path d="M18.8157 42.7474H25.0771V41.4799L18.8157 41.7615V31.9942L26.2591 32.2758V31.0115H15.6211V53.5444H27.4411V52.2816L18.8157 52.5632V42.7474Z" fill="white"/>
<path d="M46.77 49.8061L42.0979 31.0115H38.8825L39.5374 33.5777L35.3988 49.6512L30.7251 31.0115H27.5098L33.292 53.5444H35.3877L40.0262 35.457L44.6648 53.5444L46.7604 53.7009L52.5427 31.168H51.5651L46.77 49.8061Z" fill="white"/>
<path d="M59.3223 32.2805L67.2449 31.9989V53.5444H70.4395V31.9989L75.6467 32.2805V31.0115H59.8015L59.3223 32.2805Z" fill="white"/>
<path d="M79.9602 42.7474H86.2216V41.4799L79.9602 41.7615V31.9942L87.4036 32.2758V31.0115H76.7656V53.5444H88.5856V52.2816L79.9602 52.5632V42.7474Z" fill="white"/>
<path d="M99.832 31.6997C102.849 31.6997 105.215 33.9796 106.004 37.6474L106.057 37.8963H109.277L109.183 37.5097C108.084 33.0376 103.535 30.6982 99.6084 30.6982C94.1536 30.6982 88.2676 35.1125 88.2676 42.2464C88.2676 49.3802 94.1536 53.8571 99.6084 53.8571C103.313 53.8571 106.268 52.3126 108.152 49.3927L108.333 49.1126L107.47 48.6432L107.315 48.917C105.667 51.8244 102.615 52.8556 100.503 52.8556C96.2637 52.8556 91.9733 49.2003 91.9733 42.2151C91.9733 39.1715 92.8758 36.4144 94.5162 34.4522C95.9793 32.7027 97.9169 31.6997 99.832 31.6997Z" fill="white"/>
<path d="M123.471 31.0115V41.8085H113.663V31.0115H110.469V53.5444H113.663V42.7474H123.471V53.5444H126.665V31.0115H123.471Z" fill="white"/>
<path d="M55.9331 32.3056H51.5645V31.0115H56.3324L55.9331 32.3056Z" fill="white"/>
<path d="M46.569 0.182351C47.3549 0.113501 48.3548 0.645526 48.3835 0.953789C50.0032 11.6819 59.0854 20.8203 70.3256 15.4812C65.1136 24.327 51.6196 25.826 42.8201 21.2897C32.0943 16.0618 34.7474 1.50616 46.569 0.182351Z" fill="url(#paint0_linear_3117_561)"/>
<g style="mix-blend-mode:darken">
<path d="M51.869 19.5416C47.1362 19.1144 42.4785 18.26 37.9645 16.7876C37.8447 16.7484 37.7249 16.7077 37.6035 16.6686C38.712 18.5041 40.4339 20.1268 42.8171 21.2894C51.6166 25.8273 65.1122 24.3267 70.3226 15.481C70.3226 15.481 65.676 20.0595 56.5347 19.8201C54.9773 19.8029 53.4184 19.6824 51.869 19.5431V19.5416Z" fill="url(#paint1_linear_3117_561)"/>
</g>
<path d="M83.1949 23.4854C82.4378 23.7013 81.3516 23.368 81.2622 23.0707C77.5612 12.8496 66.8514 5.59991 56.873 12.9622C60.2449 3.29812 73.191 -0.72338 82.7189 2.06663C94.2722 5.17116 94.5341 19.9537 83.1949 23.4854Z" fill="url(#paint2_linear_3117_561)"/>
<g opacity="0.48">
<path d="M74.1814 5.48974C78.9094 5.01405 83.647 4.97337 88.367 5.56486C88.4932 5.5805 88.6178 5.59772 88.744 5.61336C87.2952 4.02198 85.2858 2.7545 82.7189 2.06443C73.1911 -0.725577 60.2449 3.29592 56.873 12.96C56.873 12.96 60.5309 7.58968 69.5492 6.09688C71.081 5.81991 72.6352 5.64309 74.183 5.48818L74.1814 5.48974Z" fill="url(#paint3_linear_3117_561)"/>
</g>
<defs>
<linearGradient id="paint0_linear_3117_561" x1="69.6622" y1="17.7769" x2="36.4648" y2="8.2644" gradientUnits="userSpaceOnUse">
<stop stop-color="#00F8F7"/>
<stop offset="0.96" stop-color="#7660CD"/>
</linearGradient>
<linearGradient id="paint1_linear_3117_561" x1="69.1544" y1="21.257" x2="35.189" y2="14.4423" gradientUnits="userSpaceOnUse">
<stop offset="0.18" stop-color="#7660CD"/>
<stop offset="0.65" stop-color="#7660CD" stop-opacity="0"/>
</linearGradient>
<linearGradient id="paint2_linear_3117_561" x1="57.0659" y1="10.5867" x2="91.5336" y2="13.3928" gradientUnits="userSpaceOnUse">
<stop offset="0.02" stop-color="#7660CD"/>
<stop offset="1" stop-color="#00F8F7"/>
</linearGradient>
<linearGradient id="paint3_linear_3117_561" x1="56.873" y1="7.08113" x2="91.5424" y2="7.08113" gradientUnits="userSpaceOnUse">
<stop offset="0.35" stop-color="#00F8F7"/>
<stop offset="0.59" stop-color="#479CDE" stop-opacity="0.1"/>
</linearGradient>
</defs>
</svg>
