<svg width="326" height="150" viewBox="0 0 326 150" fill="none" xmlns="http://www.w3.org/2000/svg">
<rect y="0.333252" width="325.125" height="149.02" fill="#8FB1BF"/>
<path d="M145.622 118.354H147.962V122.413C147.962 122.413 147.365 123.484 145.622 123.484C142.478 123.397 141.704 119.879 141.704 118.075C141.704 116.271 142.478 112.756 145.608 112.666C146.637 112.695 147.591 113.061 148.38 113.664L148.707 113.196C147.798 112.508 146.68 112.096 145.488 112.096C145.293 112.096 145.101 112.111 144.92 112.141C141.552 112.479 139.838 115.044 139.838 118.078C139.838 121.347 141.821 124.056 145.726 124.056C147.202 124.028 149.094 123.498 149.81 122.385V117.782H145.622V118.354Z" fill="white"/>
<path d="M159.583 118.175C159.387 117.823 159.494 118.014 159.583 118.175V118.175Z" fill="white"/>
<path d="M181.739 119.813C181.739 121.484 180.831 123.111 178.833 123.111C178.208 123.111 177.686 123.009 177.268 122.818C176.09 122.276 175.643 121.104 175.643 119.813V112.236H173.779V119.886C173.779 122.113 175.316 123.917 177.878 123.917H178.222C180.802 123.917 182.321 122.116 182.321 119.886V112.236H181.739V119.813Z" fill="white"/>
<path d="M187.262 112.373H184.014V123.775H185.877V118.896H187.264C189.635 118.896 191.111 117.723 191.111 115.626C191.111 113.529 189.635 112.373 187.264 112.373H187.262ZM187.038 118.323H185.874V112.945H187.038C188.678 112.945 189.26 114.219 189.26 115.628C189.26 117.037 188.678 118.326 187.038 118.326V118.323Z" fill="white"/>
<path d="M158.839 115.628C158.839 113.548 157.363 112.375 154.993 112.375H151.742V123.777H153.605V118.898H154.589L157.346 123.777H159.462L156.584 118.678C158.015 118.253 158.834 117.198 158.834 115.628H158.839ZM154.769 118.324H153.605V112.945H154.769C156.409 112.945 156.99 114.219 156.99 115.628C156.99 117.037 156.409 118.326 154.769 118.326V118.324Z" fill="white"/>
<path d="M166.439 112.094C162.534 112.094 160.551 114.806 160.551 118.073C160.551 121.34 162.534 124.052 166.439 124.052C170.343 124.052 172.326 121.34 172.326 118.073C172.326 114.806 170.343 112.094 166.439 112.094ZM166.439 123.484C163.219 123.484 162.414 119.893 162.414 118.075C162.414 116.257 163.219 112.666 166.439 112.666C169.658 112.666 170.463 116.257 170.463 118.075C170.463 119.893 169.672 123.484 166.439 123.484Z" fill="white"/>
<path d="M44.086 67.5127H32.1133V101.555H36.9216V88.1274H44.086C47.4638 88.1274 50.3079 87.014 52.3082 84.9028C54.0824 83.0305 55.0609 80.5151 55.0609 77.8201C55.0609 72.8555 51.6254 67.5127 44.086 67.5127ZM48.072 84.0281C47.3893 85.2504 46.1439 86.709 44.086 86.709H36.9216V68.9311H44.086C47.7932 68.9311 49.4833 73.5387 49.4833 77.8201C49.4833 80.1936 48.9832 82.3993 48.072 84.0281Z" fill="white"/>
<path d="M79.9239 76.801C79.484 72.1792 75.9354 67.5149 68.9922 67.5149H57.0195V101.558H61.8278V88.1296H67.3478L74.0794 101.558H78.9935L72.1465 87.7561C78.0655 86.3519 80.3374 81.1651 79.9239 76.8033V76.801ZM72.9783 84.028C72.2955 85.2502 71.0502 86.7088 68.9922 86.7088H61.8278V68.931H68.9922C72.6994 68.931 74.3896 73.5386 74.3896 77.8199C74.3896 80.1934 73.8895 82.3991 72.9783 84.028Z" fill="white"/>
<path d="M98.757 67.0398C90.5468 67.0398 81.6875 73.7089 81.6875 84.4867C81.6875 95.2645 90.5468 102.028 98.757 102.028C106.967 102.028 115.875 95.3212 115.875 84.4867C115.875 73.6521 106.989 67.0398 98.757 67.0398ZM98.757 100.515C95.9633 100.515 93.1385 98.9927 91.0012 96.3378C89.2966 94.2196 87.2651 90.4347 87.2651 84.4394C87.2651 74.6261 93.2298 68.5528 98.757 68.5528C104.284 68.5528 110.297 74.3708 110.297 84.1084C110.297 93.8461 104.306 100.515 98.757 100.515Z" fill="white"/>
<path d="M139.312 67.5127L140.18 70.3023L135.934 83.8248H128.541V85.2338H135.491L130.366 101.555H131.854L136.951 85.2433H144.894L149.991 101.555H154.845L144.163 67.5127H139.312ZM138.278 83.8248H137.439L140.922 72.6687L144.406 83.8248H138.275H138.278Z" fill="white"/>
<path d="M168.332 67.5127H156.359V101.555H168.332C172.357 101.555 175.732 99.6925 178.091 96.1724C180.153 93.0944 181.288 88.962 181.288 84.5364C181.288 80.1109 180.151 75.9761 178.091 72.9004C175.73 69.378 172.354 67.5174 168.332 67.5174V67.5127ZM173.785 95.3994C172.845 97.5601 171.138 100.137 168.33 100.137H161.165V68.9311H168.33C173.174 68.9311 175.71 76.7799 175.71 84.534C175.71 88.683 175.025 92.5412 173.785 95.3994Z" fill="white"/>
<path d="M195.067 96.4514L185.996 67.5127H181.145L191.826 101.555H194.94L205.624 67.5127H204.135L195.067 96.4514Z" fill="white"/>
<path d="M211.945 67.5127H207.137V101.555H211.945V67.5127Z" fill="white"/>
<path d="M225.811 80.8839C221.724 79.1392 218.192 77.6333 218.192 74.5576C218.192 71.6569 221.303 68.5529 225.934 68.5529C229.163 68.5529 231.932 69.3212 234.173 70.8342L234.553 71.0919L235.428 69.9453L234.995 69.6711C231.156 67.2314 227.09 67.0422 225.936 67.0422C220.097 67.0422 215.695 71.0257 215.695 76.3094C215.695 82.2716 221.332 84.8295 226.304 87.0849C230.54 89.0069 234.543 90.8225 234.543 94.3686C234.543 98.215 230.192 100.515 225.984 100.515C220.815 100.515 217.478 99.1133 214.822 95.8249L214.488 95.4088L213.471 96.4088L213.73 96.7374C216.579 100.345 220.474 102.026 225.987 102.026C231.132 102.026 237.142 99.5625 237.142 92.6168C237.142 85.6712 231.124 83.1487 225.816 80.8815L225.811 80.8839Z" fill="white"/>
<path d="M255.652 67.0398C247.441 67.0398 238.582 73.7089 238.582 84.4867C238.582 95.2645 247.441 102.028 255.652 102.028C263.862 102.028 272.769 95.3212 272.769 84.4867C272.769 73.6521 263.883 67.0398 255.652 67.0398ZM255.652 100.515C252.858 100.515 250.033 98.9927 247.896 96.3378C246.191 94.2196 244.16 90.4347 244.16 84.4394C244.16 74.6261 250.124 68.5528 255.652 68.5528C261.179 68.5528 267.191 74.3708 267.191 84.1084C267.191 93.8461 261.2 100.515 255.652 100.515Z" fill="white"/>
<path d="M297.596 76.801C297.156 72.1792 293.607 67.5149 286.664 67.5149H274.691V101.558H279.5V88.1296H285.02L291.751 101.558H296.665L289.818 87.7561C295.737 86.3519 298.009 81.1651 297.596 76.8033V76.801ZM286.664 86.7088H279.5V68.931H286.664C290.371 68.931 292.061 73.5386 292.061 77.8199C292.061 80.1934 291.561 82.3991 290.65 84.028C289.967 85.2502 288.722 86.7088 286.664 86.7088Z" fill="white"/>
<path d="M138.622 20.2121C139.82 20.1057 141.344 20.9213 141.387 21.3918C143.854 37.7914 157.687 51.7631 174.807 43.5999C166.871 57.1224 146.316 59.4156 132.915 52.4794C116.579 44.4864 120.62 22.2334 138.625 20.2121H138.622Z" fill="url(#paint0_linear_3117_594)"/>
<g style="mix-blend-mode:lighten">
<path d="M146.7 49.8104C139.49 49.1579 132.398 47.8505 125.525 45.5999C125.342 45.5408 125.159 45.477 124.977 45.4179C126.664 48.2241 129.287 50.704 132.917 52.4818C146.321 59.418 166.874 57.1248 174.81 43.6023C174.81 43.6023 167.732 50.6023 153.81 50.2359C151.437 50.2099 149.061 50.0255 146.703 49.8127L146.7 49.8104Z" fill="url(#paint1_linear_3117_594)"/>
</g>
<path d="M194.408 55.841C193.254 56.172 191.6 55.6614 191.465 55.2075C185.827 39.5833 169.515 28.4981 154.318 39.7535C159.454 24.9804 179.172 18.8314 193.684 23.0962C211.28 27.8409 211.679 50.4439 194.41 55.841H194.408Z" fill="url(#paint2_linear_3117_594)"/>
<path d="M180.682 28.3303C187.885 27.6045 195.1 27.5407 202.286 28.4461C202.478 28.4698 202.668 28.4958 202.861 28.5218C200.654 26.0892 197.596 24.1506 193.684 23.0962C179.172 18.8314 159.454 24.978 154.318 39.7535C154.318 39.7535 159.891 31.5431 173.624 29.2617C175.958 28.8386 178.324 28.5667 180.68 28.3303H180.682Z" fill="url(#paint3_linear_3117_594)"/>
<defs>
<linearGradient id="paint0_linear_3117_594" x1="173.797" y1="47.0783" x2="123.206" y2="32.6362" gradientUnits="userSpaceOnUse">
<stop offset="0.6" stop-color="#4E1A26"/>
<stop offset="1" stop-color="#B55752"/>
</linearGradient>
<linearGradient id="paint1_linear_3117_594" x1="173.033" y1="52.3779" x2="121.285" y2="42.0342" gradientUnits="userSpaceOnUse">
<stop stop-color="#B55752"/>
<stop offset="0.57" stop-color="#682A31" stop-opacity="0"/>
</linearGradient>
<linearGradient id="paint2_linear_3117_594" x1="154.613" y1="36.1208" x2="207.113" y2="40.3789" gradientUnits="userSpaceOnUse">
<stop offset="0.28" stop-color="#7C4D24"/>
<stop offset="0.68" stop-color="#C98E59"/>
<stop offset="0.95" stop-color="#E5A847"/>
</linearGradient>
<linearGradient id="paint3_linear_3117_594" x1="199.139" y1="26.7227" x2="142.033" y2="34.3781" gradientUnits="userSpaceOnUse">
<stop offset="0.12" stop-color="#7C4D24" stop-opacity="0"/>
<stop offset="0.58" stop-color="#E5A847"/>
</linearGradient>
</defs>
</svg>
