<svg width="48" height="50" viewBox="0 0 48 50" fill="none" xmlns="http://www.w3.org/2000/svg">
<rect width="48" height="50" rx="24" fill="url(#paint0_linear_643_6079)"/>
<path d="M35.2519 11.25H12.7496C12.2328 11.25 11.7371 11.4639 11.3716 11.8446C11.0061 12.2253 10.8008 12.7416 10.8008 13.28V36.72C10.8008 37.2584 11.0061 37.7747 11.3716 38.1554C11.7371 38.5361 12.2328 38.75 12.7496 38.75H35.2519C35.7688 38.75 36.2645 38.5361 36.63 38.1554C36.9955 37.7747 37.2008 37.2584 37.2008 36.72V13.28C37.2008 12.7416 36.9955 12.2253 36.63 11.8446C36.2645 11.4639 35.7688 11.25 35.2519 11.25ZM18.6694 34.6766H14.7003V21.5434H18.6694V34.6766ZM16.6821 19.7234C16.2319 19.7208 15.7925 19.5793 15.4194 19.3168C15.0463 19.0542 14.7562 18.6825 14.5857 18.2484C14.4153 17.8143 14.3721 17.3373 14.4616 16.8777C14.5511 16.4181 14.7694 15.9964 15.0888 15.6658C15.4081 15.3352 15.8144 15.1106 16.2562 15.0203C16.698 14.93 17.1556 14.9781 17.5712 15.1584C17.9869 15.3388 18.3419 15.6433 18.5915 16.0336C18.8411 16.424 18.9741 16.8826 18.9738 17.3516C18.978 17.6656 18.9215 17.9772 18.8077 18.268C18.6938 18.5588 18.525 18.8227 18.3111 19.044C18.0973 19.2654 17.8428 19.4396 17.5629 19.5563C17.2831 19.673 16.9835 19.7299 16.6821 19.7234ZM33.2994 34.688H29.3321V27.5132C29.3321 25.3972 28.4686 24.7441 27.354 24.7441C26.177 24.7441 25.0219 25.6684 25.0219 27.5667V34.688H21.0528V21.553H24.8698V23.3729H24.9211C25.3043 22.5651 26.6463 21.1844 28.6941 21.1844C30.9088 21.1844 33.3013 22.5536 33.3013 26.5641L33.2994 34.688Z" fill="white"/>
<defs>
<linearGradient id="paint0_linear_643_6079" x1="53" y1="-3.97518e-06" x2="4" y2="38.5" gradientUnits="userSpaceOnUse">
<stop offset="0.29" stop-color="#C98E59"/>
<stop offset="0.97" stop-color="#734124"/>
</linearGradient>
</defs>
</svg>
