<svg width="48" height="50" viewBox="0 0 48 50" fill="none" xmlns="http://www.w3.org/2000/svg">
<rect width="48" height="50" rx="24" fill="url(#paint0_linear_643_6080)"/>
<path d="M19.6077 38.1875C30.2517 38.1875 36.0717 29 36.0717 21.0375C36.0717 20.775 36.0717 20.5125 36.0597 20.2625C37.1877 19.4125 38.1717 18.35 38.9517 17.1375C37.9197 17.6125 36.8037 17.9375 35.6277 18.0875C36.8277 17.3375 37.7397 16.1625 38.1717 14.75C37.0557 15.4375 35.8197 15.9375 34.4997 16.2125C33.4437 15.0375 31.9437 14.3125 30.2757 14.3125C27.0837 14.3125 24.4917 17.0125 24.4917 20.3375C24.4917 20.8125 24.5397 21.275 24.6477 21.7125C19.8357 21.4625 15.5757 19.0625 12.7197 15.4125C12.2277 16.3 11.9397 17.3375 11.9397 18.4375C11.9397 20.525 12.9597 22.375 14.5197 23.45C13.5717 23.425 12.6837 23.15 11.9037 22.7C11.9037 22.725 11.9037 22.75 11.9037 22.775C11.9037 25.7 13.8957 28.125 16.5477 28.6875C16.0677 28.825 15.5517 28.9 15.0237 28.9C14.6517 28.9 14.2917 28.8625 13.9317 28.7875C14.6637 31.1875 16.7997 32.925 19.3317 32.975C17.3517 34.5875 14.8557 35.55 12.1437 35.55C11.6757 35.55 11.2197 35.525 10.7637 35.4625C13.2957 37.1875 16.3437 38.1875 19.6077 38.1875Z" fill="white"/>
<defs>
<linearGradient id="paint0_linear_643_6080" x1="48" y1="0" x2="2.40326e-06" y2="46" gradientUnits="userSpaceOnUse">
<stop offset="0.29" stop-color="#C98E59"/>
<stop offset="0.97" stop-color="#734124"/>
</linearGradient>
</defs>
</svg>
