<svg width="38" height="38" viewBox="0 0 38 38" fill="none" xmlns="http://www.w3.org/2000/svg">
<rect x="0.75" y="1.01147" width="35.5426" height="36.1115" rx="17.7713" stroke="white" stroke-width="1.5"/>
<path d="M20.1462 15.1142H21.7713C21.9208 15.1142 22.0422 15.0035 22.0422 14.8671V13.3848C22.0422 13.2484 21.9208 13.1377 21.7713 13.1377H20.1462C18.5038 13.1377 17.1668 14.3567 17.1668 15.8554V17.5848H15.2709C15.1213 17.5848 15 17.6955 15 17.8318V19.3142C15 19.4506 15.1213 19.5613 15.2709 19.5613H17.1668V24.7495C17.1668 24.8859 17.2882 24.9966 17.4377 24.9966H19.0628C19.2123 24.9966 19.3337 24.8859 19.3337 24.7495V19.5613H21.2296C21.3461 19.5613 21.4496 19.4931 21.4869 19.3923L22.0286 17.9099C22.0563 17.8348 22.0422 17.7518 21.9913 17.6871C21.9398 17.6228 21.8585 17.5848 21.7713 17.5848H19.3337V15.8554C19.3337 15.4467 19.6982 15.1142 20.1462 15.1142Z" fill="white"/>
</svg>
