<svg width="38" height="39" viewBox="0 0 38 39" fill="none" xmlns="http://www.w3.org/2000/svg">
<rect x="0.75" y="1.01147" width="36.5" height="36.2516" rx="18.1258" stroke="white" stroke-width="1.5"/>
<path d="M14.499 16.1635C15.3269 16.1635 15.998 15.5139 15.998 14.7125C15.998 13.9111 15.3269 13.2615 14.499 13.2615C13.6711 13.2615 13 13.9111 13 14.7125C13 15.5139 13.6711 16.1635 14.499 16.1635Z" fill="white"/>
<path d="M15.7482 17.1328H13.2498C13.1119 17.1328 13 17.2412 13 17.3747V24.6298C13 24.7633 13.1119 24.8716 13.2498 24.8716H15.7482C15.8861 24.8716 15.998 24.7633 15.998 24.6298V17.3747C15.998 17.2412 15.8861 17.1328 15.7482 17.1328Z" fill="white"/>
<path d="M23.1904 16.7305C22.1226 16.3765 20.787 16.6875 19.9861 17.2452C19.9586 17.1412 19.8607 17.0638 19.7442 17.0638H17.2459C17.108 17.0638 16.9961 17.1721 16.9961 17.3056V24.5608C16.9961 24.6942 17.108 24.8026 17.2459 24.8026H19.7442C19.8822 24.8026 19.9941 24.6942 19.9941 24.5608V19.3467C20.3978 19.0101 20.918 18.9027 21.3437 19.0778C21.7564 19.2466 21.9927 19.6587 21.9927 20.2077V24.5608C21.9927 24.6942 22.1047 24.8026 22.2426 24.8026H24.7409C24.8788 24.8026 24.9907 24.6942 24.9907 24.5608V19.7206C24.9622 17.7332 23.9964 16.9975 23.1904 16.7305Z" fill="white"/>
</svg>
