<svg width="38" height="39" viewBox="0 0 38 39" fill="none" xmlns="http://www.w3.org/2000/svg">
<rect x="0.792969" y="1.01147" width="35.5425" height="36.4056" rx="17.7712" stroke="white" stroke-width="1.5"/>
<path d="M24.3904 15.4984C24.3083 15.4087 24.176 15.3861 24.0675 15.4414C24 15.4759 23.8731 15.521 23.7225 15.5656C23.9126 15.314 24.0654 15.0324 24.1328 14.7792C24.162 14.67 24.1193 14.555 24.0265 14.49C23.9336 14.4255 23.81 14.4255 23.7171 14.49C23.5708 14.5916 22.8646 14.8969 22.4181 14.9958C21.409 14.1158 20.2347 14.0244 19.014 14.734C18.0217 15.3108 17.8057 16.4838 17.8478 17.1987C15.5765 16.981 14.1646 15.7866 13.3699 14.798C13.3143 14.7286 13.2246 14.6921 13.1404 14.6975C13.0519 14.7039 12.972 14.7528 12.9266 14.8286C12.5508 15.4603 12.4466 16.1586 12.6264 16.8482C12.7247 17.2245 12.8964 17.5562 13.0956 17.825C13 17.7782 12.9077 17.7196 12.8208 17.6497C12.7409 17.5842 12.6291 17.5718 12.5346 17.6153C12.4407 17.66 12.3808 17.7546 12.3808 17.8583C12.3808 19.0426 13.1248 19.8328 13.8196 20.2456C13.7073 20.2322 13.5902 20.2074 13.4719 20.1714C13.3704 20.1408 13.2603 20.1714 13.1901 20.251C13.1199 20.33 13.1032 20.4429 13.1469 20.5391C13.5372 21.3987 14.2769 21.99 15.192 22.2045C14.393 22.6716 13.3234 22.9006 12.3441 22.7883C12.2172 22.7705 12.0962 22.8506 12.0563 22.9721C12.0163 23.0936 12.0687 23.2269 12.1805 23.2893C13.6663 24.1198 15.0096 24.4165 16.1704 24.4165C17.8597 24.4165 19.1636 23.7887 19.9572 23.2635C22.0969 21.8497 23.4304 19.3113 23.2447 17.0401C23.5875 16.788 24.1004 16.3225 24.4184 15.822C24.4843 15.721 24.4724 15.5877 24.3904 15.4984Z" fill="white"/>
</svg>
