<svg width="494" height="26" viewBox="0 0 494 26" fill="none" xmlns="http://www.w3.org/2000/svg">
<path d="M4.36431 2.98071H0.949463V24.3384H12.8067V23.2712H4.36431V2.98071Z" fill="#74471F" stroke="#74471F" stroke-width="0.75" stroke-miterlimit="10"/>
<path d="M29.0305 17.1734C29.0305 20.3042 27.3649 23.3509 23.7033 23.3509C22.5577 23.3509 21.6016 23.1604 20.8349 22.8018C18.6758 21.7877 17.8562 19.5912 17.8562 17.1734V2.98071H14.4414V17.3107C14.4414 21.4821 17.257 24.8609 21.9541 24.8609H22.5842C27.3121 24.8609 30.0968 21.4865 30.0968 17.3107V2.98071H29.0305V17.1734Z" fill="#74471F" stroke="#74471F" stroke-width="0.75" stroke-miterlimit="10"/>
<path d="M50.2862 2.98071H49.0305L42.6899 11.4653L37.4729 2.98071H33.4323L40.5044 14.4278L33.1019 24.3384H34.3577L41.0507 15.3356L46.6246 24.3384H50.6388L43.2671 12.3687L50.2862 2.98071Z" fill="#74471F" stroke="#74471F" stroke-width="0.75" stroke-miterlimit="10"/>
<path d="M68.2329 17.1734C68.2329 20.3042 66.5673 23.3509 62.9057 23.3509C61.7601 23.3509 60.804 23.1604 60.0373 22.8018C57.8782 21.7877 57.0587 19.5912 57.0587 17.1734V2.98071H53.6438V17.3107C53.6438 21.4821 56.4594 24.8609 61.1565 24.8609H61.7866C66.5145 24.8609 69.2992 21.4865 69.2992 17.3107V2.98071H68.2329V17.1734Z" fill="#74471F" stroke="#74471F" stroke-width="0.75" stroke-miterlimit="10"/>
<path d="M86.6731 9.07405C86.6731 5.17715 83.9676 2.98071 79.6231 2.98071H73.6658V24.3384H77.0806V15.1984H78.8828L83.9368 24.3384H87.8143L82.54 14.7865C85.1617 13.9894 86.6642 12.0144 86.6642 9.07405H86.6731ZM79.2177 14.1267H77.0851V4.05235H79.2177C82.2228 4.05235 83.2891 6.43919 83.2891 9.07845C83.2891 11.7177 82.2228 14.1312 79.2177 14.1312V14.1267Z" fill="#74471F" stroke="#74471F" stroke-width="0.75" stroke-miterlimit="10"/>
<path d="M98.0676 13.5245L91.9738 2.98071H88.3695L95.1992 14.3747V24.3384H98.614V14.4013L105.276 2.98071H104.157L98.0676 13.5245Z" fill="#74471F" stroke="#74471F" stroke-width="0.75" stroke-miterlimit="10"/>
<path d="M129.207 9.07405C129.207 5.17715 126.501 2.98071 122.157 2.98071H116.199V24.3384H119.614V15.1984H121.416L126.47 24.3384H130.348L125.074 14.7865C127.695 13.9894 129.198 12.0144 129.198 9.07405H129.207ZM121.751 14.1267H119.619V4.05235H121.751C124.756 4.05235 125.823 6.43919 125.823 9.07845C125.823 11.7177 124.756 14.1312 121.751 14.1312V14.1267Z" fill="#74471F" stroke="#74471F" stroke-width="0.75" stroke-miterlimit="10"/>
<path d="M133.635 24.3384H137.05H145.492V23.2712H137.05V12.8647H143.959V11.793H137.05V4.05235H145.492V2.98071H133.635V24.3384Z" fill="#74471F" stroke="#74471F" stroke-width="0.75" stroke-miterlimit="10"/>
<path d="M147.951 24.3384H149.07L152.212 16.3764H158.795L161.91 24.3384H165.545L156.75 2.45825L147.955 24.3384H147.951ZM152.648 15.3091L155.543 8.00689L158.385 15.3091H152.648Z" fill="#74471F" stroke="#74471F" stroke-width="0.75" stroke-miterlimit="10"/>
<path d="M171.965 2.98071H168.55V24.3384H180.403V23.2712H171.965V2.98071Z" fill="#74471F" stroke="#74471F" stroke-width="0.75" stroke-miterlimit="10"/>
<path d="M191.877 24.3384H195.292H203.734V23.2712H195.292V12.8647H202.205V11.793H195.292V4.05235H203.734V2.98071H191.877V24.3384Z" fill="#74471F" stroke="#74471F" stroke-width="0.75" stroke-miterlimit="10"/>
<path d="M209.224 6.41271C209.224 4.8761 210.317 3.52989 213.102 3.52989C215.124 3.52989 216.842 4.54396 217.799 5.42519L218.508 4.6281C217.415 3.64059 215.419 2.45825 213.097 2.45825C208.779 2.45825 206.461 4.57053 206.461 8.47185C206.461 15.1453 216.543 16.0221 216.543 20.3308C216.543 22.5538 215.04 23.7362 212.256 23.7362C209.471 23.7362 207.528 21.8984 207.528 21.8984L206.818 22.6955C206.818 22.6955 208.814 24.8654 212.198 24.8654C216.732 24.8654 219.464 22.7531 219.464 18.989C219.464 12.3998 209.22 12.537 209.22 6.41715L209.224 6.41271Z" fill="#74471F" stroke="#74471F" stroke-width="0.75" stroke-miterlimit="10"/>
<path d="M236.243 2.98071H229.823H226.435H220.015V4.05235H226.435V24.3384H229.823V4.05235H236.243V2.98071Z" fill="#74471F" stroke="#74471F" stroke-width="0.75" stroke-miterlimit="10"/>
<path d="M235.15 24.3384H236.27L239.411 16.3764H245.994L249.109 24.3384H252.745L243.95 2.45825L235.155 24.3384H235.15ZM239.848 15.3091L242.742 8.00689L245.584 15.3091H239.848Z" fill="#74471F" stroke="#74471F" stroke-width="0.75" stroke-miterlimit="10"/>
<path d="M258.072 2.98071H251.652V4.05235H258.072V24.3384H261.46V4.05235H267.876V2.98071H261.46H258.072Z" fill="#74471F" stroke="#74471F" stroke-width="0.75" stroke-miterlimit="10"/>
<path d="M271.158 24.3384H274.569H283.011V23.2712H274.569V12.8647H281.482V11.793H274.569V4.05235H283.011V2.98071H271.158V24.3384Z" fill="#74471F" stroke="#74471F" stroke-width="0.75" stroke-miterlimit="10"/>
<path d="M311.26 20.3308C312.599 18.6569 313.665 16.6243 314.401 14.2375L313.335 13.9098C312.568 16.217 311.506 17.975 310.251 19.3167C310.251 19.3167 306.1 15.1143 304.487 13.4404C306.836 12.1208 309.898 10.8056 309.898 7.04152C309.898 5.00894 308.233 2.45825 303.972 2.45825C299.054 2.45825 298.019 5.20378 298.019 7.37365C298.019 9.8712 300.804 12.1518 301.76 13.25C299.491 14.4855 295.313 15.7741 295.313 19.8659C295.313 22.9701 297.825 24.8078 300.94 24.861C304.544 24.9451 307.796 23.9532 310.281 21.429C311.594 22.855 312.877 24.3384 312.877 24.3384H315.225C315.225 24.3384 312.057 21.1279 311.401 20.4681L311.264 20.3308H311.26ZM300.931 7.73234C300.931 6.66069 301.588 3.52989 303.963 3.52989C306.474 3.52989 306.915 6.11158 306.915 7.23637C306.915 9.29553 306.452 10.9163 303.5 12.4529C303.09 12.0145 300.931 9.89777 300.931 7.73234ZM302.654 22.5007C301.015 22.5007 298.719 21.7302 298.719 19.454C298.719 17.7535 299.728 15.8007 302.791 14.1578C304.65 16.0797 309.158 20.3618 309.158 20.3618C309.158 20.3618 306.452 22.5051 302.659 22.5051L302.654 22.5007Z" fill="#74471F" stroke="#74471F" stroke-width="0.75" stroke-miterlimit="10"/>
<path d="M330.929 2.98071H327.514V24.3384H330.929V2.98071Z" fill="#74471F" stroke="#74471F" stroke-width="0.75" stroke-miterlimit="10"/>
<path d="M348.766 18.161L335.3 2.45825V24.3384H336.366V9.04753L349.806 24.8344L349.832 24.861V2.98079H348.766V18.161Z" fill="#74471F" stroke="#74471F" stroke-width="0.75" stroke-miterlimit="10"/>
<path d="M362.535 19.3167L356.446 2.98071H352.564L361.363 24.8609L370.132 2.98071H369.008L362.535 19.3167Z" fill="#74471F" stroke="#74471F" stroke-width="0.75" stroke-miterlimit="10"/>
<path d="M372.863 24.3384H376.278H384.716V23.2712H376.278V12.8647H383.187V11.793H376.278V4.05235H384.716V2.98071H372.863V24.3384Z" fill="#74471F" stroke="#74471F" stroke-width="0.75" stroke-miterlimit="10"/>
<path d="M390.211 6.41271C390.211 4.8761 391.304 3.52989 394.088 3.52989C396.111 3.52989 397.829 4.54396 398.785 5.42519L399.495 4.6281C398.402 3.64059 396.41 2.45825 394.084 2.45825C389.77 2.45825 387.448 4.57053 387.448 8.47185C387.448 15.1453 397.53 16.0221 397.53 20.3308C397.53 22.5538 396.027 23.7362 393.242 23.7362C390.458 23.7362 388.519 21.8984 388.519 21.8984L387.809 22.6955C387.809 22.6955 389.805 24.8654 393.189 24.8654C397.723 24.8654 400.455 22.7531 400.455 18.989C400.455 12.3998 390.211 12.537 390.211 6.41715V6.41271Z" fill="#74471F" stroke="#74471F" stroke-width="0.75" stroke-miterlimit="10"/>
<path d="M407.422 2.98071H401.002V4.05235H407.422V24.3384H410.806V4.05235H417.226V2.98071H410.806H407.422Z" fill="#74471F" stroke="#74471F" stroke-width="0.75" stroke-miterlimit="10"/>
<path d="M420.508 2.45825V24.3384H421.544V11.1643L429.33 24.861L436.432 11.1067V24.3384H439.847V2.45825L430.722 19.9766L420.508 2.45825Z" fill="#74471F" stroke="#74471F" stroke-width="0.75" stroke-miterlimit="10"/>
<path d="M444.218 24.3384H447.633H456.075V23.2712H447.633V12.8647H454.546V11.793H447.633V4.05235H456.075V2.98071H444.218V24.3384Z" fill="#74471F" stroke="#74471F" stroke-width="0.75" stroke-miterlimit="10"/>
<path d="M472.819 18.161L459.354 2.45825V24.3384H460.42V9.04753L473.859 24.8344L473.886 24.861V2.98079H472.819V18.161Z" fill="#74471F" stroke="#74471F" stroke-width="0.75" stroke-miterlimit="10"/>
<path d="M486.972 2.98071H483.584H477.164V4.05235H483.584V24.3384H486.972V4.05235H493.392V2.98071H486.972Z" fill="#74471F" stroke="#74471F" stroke-width="0.75" stroke-miterlimit="10"/>
</svg>
