<svg width="37" height="35" viewBox="0 0 37 35" fill="none" xmlns="http://www.w3.org/2000/svg">
<path opacity="0.25" fill-rule="evenodd" clip-rule="evenodd" d="M18.5 33.6857C28.165 33.6857 36 26.3687 36 17.3428C36 8.31694 28.165 1 18.5 1C8.83502 1 1 8.31694 1 17.3428C1 26.3687 8.83502 33.6857 18.5 33.6857Z" stroke="white" stroke-width="1.5"/>
<path d="M20.0932 13.1596H21.7016C21.8495 13.1596 21.9696 13.0539 21.9696 12.9237V11.5084C21.9696 11.3781 21.8495 11.2725 21.7016 11.2725H20.0932C18.4677 11.2725 17.1445 12.4364 17.1445 13.8673V15.5186H15.2681C15.1201 15.5186 15 15.6243 15 15.7545V17.1698C15 17.3001 15.1201 17.4057 15.2681 17.4057H17.1445V22.3595C17.1445 22.4898 17.2646 22.5954 17.4126 22.5954H19.0209C19.1689 22.5954 19.289 22.4898 19.289 22.3595V17.4057H21.1655C21.2807 17.4057 21.3831 17.3406 21.4201 17.2444L21.9562 15.829C21.9836 15.7573 21.9696 15.678 21.9192 15.6162C21.8683 15.5549 21.7879 15.5186 21.7016 15.5186H19.289V13.8673C19.289 13.4771 19.6498 13.1596 20.0932 13.1596Z" fill="white"/>
</svg>
