<svg width="37" height="35" viewBox="0 0 37 35" fill="none" xmlns="http://www.w3.org/2000/svg">
<path opacity="0.25" fill-rule="evenodd" clip-rule="evenodd" d="M18.5 33.6857C28.165 33.6857 36 26.3687 36 17.3428C36 8.31694 28.165 1 18.5 1C8.83502 1 1 8.31694 1 17.3428C1 26.3687 8.83502 33.6857 18.5 33.6857Z" stroke="white" stroke-width="1.5"/>
<path d="M14.4835 14.0434C15.3029 14.0434 15.9671 13.4231 15.9671 12.6579C15.9671 11.8927 15.3029 11.2725 14.4835 11.2725C13.6642 11.2725 13 11.8927 13 12.6579C13 13.4231 13.6642 14.0434 14.4835 14.0434Z" fill="white"/>
<path d="M15.7198 14.9688H13.2473C13.1108 14.9688 13 15.0722 13 15.1997V22.1269C13 22.2544 13.1108 22.3578 13.2473 22.3578H15.7198C15.8563 22.3578 15.9671 22.2544 15.9671 22.1269V15.1997C15.9671 15.0722 15.8563 14.9688 15.7198 14.9688Z" fill="white"/>
<path d="M23.0876 14.5851C22.0308 14.247 20.7089 14.544 19.9162 15.0764C19.889 14.9771 19.7921 14.9033 19.6769 14.9033H17.2043C17.0678 14.9033 16.957 15.0067 16.957 15.1342V22.0614C16.957 22.1889 17.0678 22.2923 17.2043 22.2923H19.6769C19.8134 22.2923 19.9241 22.1889 19.9241 22.0614V17.083C20.3237 16.7616 20.8385 16.6591 21.2598 16.8263C21.6683 16.9874 21.9022 17.3809 21.9022 17.9051V22.0614C21.9022 22.1889 22.013 22.2923 22.1495 22.2923H24.622C24.7585 22.2923 24.8693 22.1889 24.8693 22.0614V17.44C24.8411 15.5424 23.8852 14.84 23.0876 14.5851Z" fill="white"/>
</svg>
