<svg width="37" height="35" viewBox="0 0 37 35" fill="none" xmlns="http://www.w3.org/2000/svg">
<path opacity="0.25" fill-rule="evenodd" clip-rule="evenodd" d="M18.5 33.6857C28.165 33.6857 36 26.3687 36 17.3428C36 8.31694 28.165 1 18.5 1C8.83502 1 1 8.31694 1 17.3428C1 26.3687 8.83502 33.6857 18.5 33.6857Z" stroke="white" stroke-width="1.5"/>
<path d="M24.2202 14.3217C24.139 14.236 24.0081 14.2144 23.9007 14.2673C23.8339 14.3001 23.7083 14.3432 23.5592 14.3858C23.7473 14.1456 23.8985 13.8767 23.9653 13.6349C23.9942 13.5307 23.952 13.4209 23.8601 13.3588C23.7682 13.2972 23.6458 13.2972 23.5539 13.3588C23.4091 13.4558 22.7102 13.7473 22.2683 13.8418C21.2696 13.0016 20.1074 12.9143 18.8992 13.5918C17.9171 14.1425 17.7034 15.2625 17.7451 15.9451C15.4971 15.7373 14.0998 14.5968 13.3132 13.6529C13.2582 13.5867 13.1695 13.5518 13.0861 13.5569C12.9985 13.5631 12.9194 13.6098 12.8745 13.6821C12.5026 14.2852 12.3995 14.952 12.5774 15.6105C12.6747 15.9698 12.8446 16.2865 13.0418 16.5431C12.9472 16.4984 12.8558 16.4425 12.7698 16.3758C12.6907 16.3132 12.5801 16.3013 12.4866 16.3429C12.3936 16.3855 12.3343 16.4759 12.3343 16.5749C12.3343 17.7056 13.0706 18.4601 13.7583 18.8543C13.6472 18.8415 13.5312 18.8179 13.4142 18.7835C13.3138 18.7542 13.2048 18.7835 13.1353 18.8595C13.0658 18.9349 13.0493 19.0427 13.0926 19.1346C13.4789 19.9553 14.2109 20.5199 15.1166 20.7247C14.3258 21.1707 13.2673 21.3894 12.298 21.2821C12.1724 21.2651 12.0527 21.3416 12.0132 21.4576C11.9736 21.5736 12.0255 21.7009 12.1361 21.7604C13.6066 22.5534 14.936 22.8368 16.0849 22.8368C17.7568 22.8368 19.0472 22.2373 19.8327 21.7358C21.9503 20.3859 23.2701 17.9623 23.0863 15.7937C23.4256 15.553 23.9333 15.1085 24.248 14.6307C24.3132 14.5342 24.3014 14.4069 24.2202 14.3217Z" fill="white"/>
</svg>
