<svg width="15" height="16" viewBox="0 0 15 16" fill="none" xmlns="http://www.w3.org/2000/svg">
<path d="M7.5293 8C5.31055 8 3.5293 6.21875 3.5293 4C3.5293 1.8125 5.31055 0 7.5293 0C9.7168 0 11.5293 1.8125 11.5293 4C11.5293 6.21875 9.7168 8 7.5293 8ZM10.3105 9C12.623 9 14.5293 10.9062 14.5293 13.2188V14.5C14.5293 15.3438 13.8418 16 13.0293 16H2.0293C1.18555 16 0.529297 15.3438 0.529297 14.5V13.2188C0.529297 10.9062 2.4043 9 4.7168 9H5.24805C5.93555 9.34375 6.7168 9.5 7.5293 9.5C8.3418 9.5 9.0918 9.34375 9.7793 9H10.3105Z" fill="white"/>
</svg>
