<svg width="19" height="14" viewBox="0 0 19 14" fill="none" xmlns="http://www.w3.org/2000/svg">
<path d="M0.560547 12.5V7H18.5605V12.5C18.5605 13.3438 17.873 14 17.0605 14H2.06055C1.2168 14 0.560547 13.3438 0.560547 12.5ZM6.56055 10.375V11.625C6.56055 11.8438 6.7168 12 6.93555 12H11.1855C11.373 12 11.5605 11.8438 11.5605 11.625V10.375C11.5605 10.1875 11.373 10 11.1855 10H6.93555C6.7168 10 6.56055 10.1875 6.56055 10.375ZM2.56055 10.375V11.625C2.56055 11.8438 2.7168 12 2.93555 12H5.18555C5.37305 12 5.56055 11.8438 5.56055 11.625V10.375C5.56055 10.1875 5.37305 10 5.18555 10H2.93555C2.7168 10 2.56055 10.1875 2.56055 10.375ZM18.5605 1.5V3H0.560547V1.5C0.560547 0.6875 1.2168 0 2.06055 0H17.0605C17.873 0 18.5605 0.6875 18.5605 1.5Z" fill="white"/>
</svg>
