<svg width="21" height="17" viewBox="0 0 21 17" fill="none" xmlns="http://www.w3.org/2000/svg">
<path d="M16.4492 6.96875L16.168 7.4375C16.0742 7.59375 15.8867 7.65625 15.6992 7.59375C15.3555 7.46875 15.0117 7.25 14.6992 7.03125C14.5742 6.90625 14.5117 6.6875 14.6055 6.53125L14.8867 6.09375C14.668 5.84375 14.4805 5.53125 14.3867 5.21875H13.8555C13.668 5.21875 13.5117 5.09375 13.4805 4.90625C13.418 4.53125 13.418 4.125 13.4805 3.75C13.5117 3.5625 13.668 3.40625 13.8555 3.40625H14.3867C14.4805 3.09375 14.668 2.8125 14.8867 2.5625L14.6055 2.125C14.5117 1.9375 14.5742 1.75 14.6992 1.625C15.0117 1.375 15.3555 1.1875 15.6992 1.03125C15.8867 0.96875 16.0742 1.03125 16.168 1.21875L16.4492 1.65625C16.7617 1.59375 17.1055 1.59375 17.418 1.65625L17.6992 1.21875C17.793 1.03125 17.9805 0.96875 18.168 1.03125C18.5117 1.1875 18.8555 1.375 19.168 1.625C19.293 1.75 19.3555 1.9375 19.2617 2.125L18.9805 2.5625C19.1992 2.8125 19.3867 3.09375 19.4805 3.40625H20.0117C20.1992 3.40625 20.3555 3.5625 20.3867 3.75C20.4492 4.125 20.4492 4.5 20.3867 4.90625C20.3555 5.09375 20.1992 5.21875 20.0117 5.21875H19.4805C19.3867 5.53125 19.1992 5.84375 18.9805 6.09375L19.2617 6.53125C19.3555 6.6875 19.293 6.90625 19.168 7.03125C18.8555 7.25 18.5117 7.46875 18.168 7.59375C17.9805 7.65625 17.793 7.59375 17.6992 7.4375L17.418 6.96875C17.1055 7.03125 16.7617 7.03125 16.4492 6.96875ZM16.1055 5.15625C17.3242 6.0625 18.6992 4.6875 17.7617 3.5C16.543 2.5625 15.1992 3.9375 16.1055 5.15625ZM12.5117 9.96875L13.5742 10.4688C13.8867 10.6562 14.0117 11.0312 13.8867 11.375C13.6055 12.1562 13.0742 12.8438 12.543 13.4375C12.3242 13.7188 11.918 13.7812 11.6055 13.625L10.6992 13.0938C10.1992 13.5 9.60547 13.8438 8.98047 14.0625V15.125C8.98047 15.5 8.73047 15.8125 8.35547 15.875C7.60547 16 6.79297 16 6.01172 15.875C5.63672 15.8125 5.38672 15.5 5.38672 15.125V14.0625C4.73047 13.8438 4.16797 13.5 3.66797 13.0938L2.76172 13.5938C2.44922 13.7812 2.04297 13.7188 1.79297 13.4375C1.29297 12.8438 0.761719 12.1562 0.480469 11.375C0.355469 11.0625 0.480469 10.6562 0.824219 10.4688L1.85547 9.96875C1.73047 9.3125 1.73047 8.625 1.85547 7.96875L0.824219 7.4375C0.480469 7.25 0.355469 6.875 0.480469 6.53125C0.761719 5.78125 1.29297 5.09375 1.79297 4.46875C2.04297 4.21875 2.41797 4.125 2.76172 4.3125L3.66797 4.84375C4.16797 4.40625 4.73047 4.0625 5.38672 3.84375V2.8125C5.38672 2.4375 5.63672 2.125 5.98047 2.0625C6.76172 1.9375 7.57422 1.9375 8.35547 2.0625C8.73047 2.125 8.98047 2.4375 8.98047 2.8125V3.84375C9.60547 4.0625 10.1992 4.40625 10.6992 4.84375L11.6055 4.3125C11.918 4.125 12.3242 4.1875 12.543 4.46875C13.0742 5.09375 13.6055 5.78125 13.8867 6.53125C14.0117 6.875 13.8867 7.25 13.5742 7.4375L12.5117 7.96875C12.6367 8.625 12.6367 9.3125 12.5117 9.96875ZM8.82422 10.625C10.668 8.21875 7.94922 5.46875 5.54297 7.3125C3.66797 9.71875 6.41797 12.4688 8.82422 10.625ZM16.4492 16.3125L16.168 16.7812C16.0742 16.9375 15.8867 17 15.6992 16.9375C15.3555 16.8125 15.0117 16.5938 14.6992 16.3438C14.5742 16.25 14.5117 16.0312 14.6055 15.875L14.8867 15.4062C14.668 15.1562 14.4805 14.875 14.3867 14.5625H13.8555C13.668 14.5625 13.5117 14.4375 13.4805 14.25C13.418 13.875 13.418 13.4688 13.4805 13.0938C13.5117 12.9062 13.668 12.75 13.8555 12.75H14.3867C14.4805 12.4375 14.668 12.1562 14.8867 11.9062L14.6055 11.4688C14.5117 11.2812 14.5742 11.0938 14.6992 10.9688C15.0117 10.7188 15.3555 10.5312 15.6992 10.375C15.8867 10.3125 16.0742 10.375 16.168 10.5625L16.4492 11C16.7617 10.9375 17.1055 10.9375 17.418 11L17.6992 10.5625C17.793 10.375 17.9805 10.3125 18.168 10.375C18.5117 10.5312 18.8555 10.7188 19.168 10.9688C19.293 11.0938 19.3555 11.2812 19.2617 11.4688L18.9805 11.9062C19.1992 12.1562 19.3867 12.4375 19.4805 12.75H20.0117C20.1992 12.75 20.3555 12.9062 20.3867 13.0938C20.4492 13.4688 20.4492 13.8438 20.3867 14.25C20.3555 14.4375 20.1992 14.5625 20.0117 14.5625H19.4805C19.3867 14.875 19.1992 15.1562 18.9805 15.4062L19.2617 15.875C19.3555 16.0312 19.293 16.25 19.168 16.3438C18.8555 16.5938 18.5117 16.8125 18.168 16.9375C17.9805 17 17.793 16.9375 17.6992 16.7812L17.418 16.3125C17.1055 16.375 16.7617 16.375 16.4492 16.3125ZM16.1055 14.4688C17.3242 15.4062 18.6992 14.0312 17.7617 12.8438C16.543 11.9062 15.1992 13.2812 16.1055 14.4688Z" fill="white"/>
</svg>
