<svg width="700" height="68" viewBox="0 0 700 68" fill="none" xmlns="http://www.w3.org/2000/svg">
<path d="M33.3206 4.66503C41.2034 4.66503 47.3986 10.8469 49.4871 20.7929L49.7823 22.1966H60.4983L59.974 20.0091C56.8368 6.91017 43.8824 0.0551758 32.7037 0.0551758C17.2334 0.0551758 0.538086 12.8884 0.538086 33.6216C0.538086 54.3549 18.1014 67.3652 34.3781 67.3652C40.4763 67.3652 46.1824 65.3326 51.3686 61.3162L56.6649 66.4796H60.0225V37.2528H49.4475V57.4237C45.4246 60.7759 40.7627 62.7554 36.8456 62.7554C24.7592 62.7554 12.5231 52.7164 12.5231 33.5287C12.5231 25.1193 14.9421 17.5159 19.3396 12.1223C23.2038 7.37957 28.3019 4.65618 33.3206 4.65618V4.66503Z" fill="#74471F"/>
<path d="M75.0037 0.945312H64.4287V66.484H98.7975V61.1081L75.0037 61.9052V0.945312Z" fill="#74471F"/>
<path d="M129.641 0.0595703C114.171 0.0595703 97.4756 12.8928 97.4756 33.626C97.4756 54.3593 114.171 67.3696 129.641 67.3696C145.112 67.3696 161.895 54.47 161.895 33.626C161.895 12.7821 145.151 0.0595703 129.641 0.0595703ZM109.461 33.5375C109.461 15.7047 119.934 4.66499 129.641 4.66499C139.348 4.66499 149.91 15.2309 149.91 32.9175C149.91 50.6041 139.388 62.7642 129.641 62.7642C124.794 62.7642 119.864 60.0364 116.118 55.276C113.083 51.4189 109.461 44.5152 109.461 33.5375Z" fill="#74471F"/>
<path d="M200.807 31.8857C207.601 28.2324 210.201 21.6343 209.584 16.121C208.738 8.56636 201.948 0.949707 188.685 0.949707H165.861V66.4884H191.329C205.098 66.4884 212.302 57.3529 212.302 48.3324C212.302 41.9158 208.703 34.9944 200.807 31.8902V31.8857ZM195.308 26.5187C193.668 28.9409 191.443 30.172 188.685 30.172H176.436V5.37357H188.685C194.876 5.37357 197.696 11.799 197.696 17.7728C197.696 21.0851 196.823 24.2735 195.308 26.5187ZM176.436 34.6003H191.329C197.506 34.6003 200.317 41.7166 200.317 48.328C200.317 54.9394 197.229 62.0557 191.329 62.0557H176.436V34.6003Z" fill="#74471F"/>
<path d="M231.157 0.945351L233.016 7.05197L214.757 66.4796H219.33L228.672 35.9244H241.93L251.271 66.4796H262.014L241.89 0.940918H231.157V0.945351ZM230.108 31.5006L235.303 14.5048L240.498 31.5006H230.113H230.108Z" fill="#74471F"/>
<path d="M275.488 0.945312H264.913V66.484H311.179V61.1081L275.488 61.9052V0.945312Z" fill="#74471F"/>
<path d="M342.155 0.945312H319.33V66.484H329.905V41.3313H342.155C348.597 41.3313 354.029 39.1482 357.867 35.0122C361.273 31.3411 363.15 26.4168 363.15 21.1383C363.15 11.1038 355.937 0.945312 342.155 0.945312ZM329.905 5.3736H342.155C348.072 5.3736 351.165 13.3047 351.165 21.1383C351.165 25.3762 350.262 29.4591 348.689 32.3419C347.037 35.3664 344.838 36.903 342.155 36.903H329.905V5.3736Z" fill="#74471F"/>
<path d="M410.914 19.1456C410.073 10.0853 403.283 0.945312 390.002 0.945312H367.178V66.484H377.753V41.3313H386.437L398.775 66.484H409.742L397.043 40.3261C407.618 37.2219 411.681 27.4265 410.914 19.1456ZM377.757 5.3736H390.007C395.924 5.3736 399.017 13.3047 399.017 21.1383C399.017 25.3762 398.114 29.4591 396.541 32.3419C394.889 35.3664 392.69 36.903 390.007 36.903H377.757V5.3736Z" fill="#74471F"/>
<path d="M446.759 0.0595703C431.289 0.0595703 414.593 12.8928 414.593 33.626C414.593 54.3593 431.289 67.3696 446.759 67.3696C462.229 67.3696 479.013 54.47 479.013 33.626C479.013 12.7821 462.269 0.0595703 446.759 0.0595703ZM426.578 33.5375C426.578 15.7047 437.052 4.66499 446.759 4.66499C456.466 4.66499 467.028 15.2309 467.028 32.9175C467.028 50.6041 456.506 62.7642 446.759 62.7642C441.912 62.7642 436.982 60.0364 433.236 55.276C430.2 51.4189 426.578 44.5152 426.578 33.5375Z" fill="#74471F"/>
<path d="M505.798 0.945312H482.974V66.484H493.549V41.3313H505.798C512.24 41.3313 517.673 39.1482 521.511 35.0122C524.917 31.3411 526.794 26.4168 526.794 21.1383C526.794 11.1038 519.581 0.945312 505.798 0.945312ZM493.549 5.3736H505.798C511.716 5.3736 514.809 13.3047 514.809 21.1383C514.809 25.3762 513.906 29.4591 512.333 32.3419C510.681 35.3664 508.482 36.903 505.798 36.903H493.549V5.3736Z" fill="#74471F"/>
<path d="M541.401 35.9288H558.673V30.5307L541.401 31.3278V5.53302L561.934 6.33012V0.945312H530.826V66.484H565.195V61.1081L541.401 61.9052V35.9288Z" fill="#74471F"/>
<path d="M613.337 19.1456C612.496 10.0853 605.706 0.945312 592.425 0.945312H569.601V66.484H580.176V41.3313H588.861L601.198 66.484H612.165L599.466 40.3261C610.041 37.2219 614.104 27.4265 613.337 19.1456ZM580.176 5.3736H592.425C598.343 5.3736 601.436 13.3047 601.436 21.1383C601.436 25.3762 600.533 29.4591 598.96 32.3419C597.307 35.3664 595.109 36.903 592.425 36.903H580.176V5.3736Z" fill="#74471F"/>
<path d="M612.17 6.36112L626.534 5.56402V66.484H637.109V5.56402L651.469 6.36112V0.945312H612.17V6.36112Z" fill="#74471F"/>
<path d="M694.628 0.945312L679.158 31.5404L664.018 0.945312H653.007L670.945 36.4425V66.484H681.52V36.4425L699.462 0.945312H694.628Z" fill="#74471F"/>
</svg>
