<svg width="150" height="66" viewBox="0 0 150 66" fill="none" xmlns="http://www.w3.org/2000/svg">
<path d="M28.3234 0.150623C30.434 -0.0397933 33.1218 1.43039 33.1967 2.2762C37.5457 31.8395 61.9431 57.0188 92.1348 42.308C78.1361 66.6813 41.8903 70.8173 18.2508 58.3118C-10.5573 43.9066 -3.43241 3.79511 28.319 0.150623H28.3234Z" fill="url(#paint0_linear_10_4618)"/>
<g style="mix-blend-mode:darken">
<path d="M42.56 53.5028C29.848 52.3249 17.3386 49.969 5.21264 45.9127C4.89098 45.8064 4.56494 45.6913 4.24329 45.585C7.2175 50.6421 11.8441 55.1147 18.2463 58.3164C41.8815 70.8174 78.1317 66.6858 92.1303 42.3125C92.1303 42.3125 79.6474 54.9287 55.0958 54.2689C50.9099 54.2202 46.7239 53.8881 42.5644 53.5028H42.56Z" fill="url(#paint1_linear_10_4618)"/>
</g>
<path d="M126.702 64.3697C124.666 64.9675 121.749 64.0465 121.511 63.2272C111.571 35.0633 82.8023 15.0828 55.9991 35.3688C65.0583 8.7415 99.8325 -2.34251 125.424 5.345C156.457 13.896 157.162 54.6363 126.702 64.3653V64.3697Z" fill="url(#paint2_linear_10_4618)"/>
<g style="mix-blend-mode:darken">
<path d="M102.494 14.7816C115.197 13.4709 127.918 13.3602 140.595 14.9898C140.934 15.034 141.269 15.0783 141.608 15.127C137.717 10.743 132.32 7.2491 125.424 5.34936C99.8325 -2.33815 65.0583 8.74145 55.9991 35.3732C55.9991 35.3732 65.825 20.5738 90.0462 16.4644C94.1616 15.7027 98.3344 15.2156 102.489 14.7861L102.494 14.7816Z" fill="url(#paint3_linear_10_4618)"/>
</g>
<defs>
<linearGradient id="paint0_linear_10_4618" x1="90.354" y1="48.5957" x2="0.844877" y2="23.5946" gradientUnits="userSpaceOnUse">
<stop offset="0.16" stop-color="#DDA07D"/>
<stop offset="0.44" stop-color="#C98E59"/>
<stop offset="1" stop-color="#7C4D24"/>
</linearGradient>
<linearGradient id="paint1_linear_10_4618" x1="88.998" y1="58.1621" x2="-2.41346" y2="40.2842" gradientUnits="userSpaceOnUse">
<stop offset="0.11" stop-color="#7C4D24"/>
<stop offset="0.44" stop-color="#C98E59"/>
<stop offset="0.93" stop-color="#DDA07D"/>
</linearGradient>
<linearGradient id="paint2_linear_10_4618" x1="56.5187" y1="28.8266" x2="149.132" y2="36.1763" gradientUnits="userSpaceOnUse">
<stop offset="0.16" stop-color="#DDA07D"/>
<stop offset="0.44" stop-color="#C98E59"/>
<stop offset="1" stop-color="#7C4D24"/>
</linearGradient>
<linearGradient id="paint3_linear_10_4618" x1="55.9991" y1="19.1656" x2="149.125" y2="19.1656" gradientUnits="userSpaceOnUse">
<stop offset="0.11" stop-color="#7C4D24"/>
<stop offset="0.44" stop-color="#C98E59"/>
<stop offset="0.93" stop-color="#DDA07D"/>
</linearGradient>
</defs>
</svg>
