<svg width="73" height="33" viewBox="0 0 73 33" fill="none" xmlns="http://www.w3.org/2000/svg">
<path d="M13.6873 0.00854054C14.7116 -0.088064 16.0161 0.65781 16.0524 1.08691C18.1631 16.0853 30.0039 28.8596 44.6568 21.3963C37.8628 33.7617 20.2716 35.86 8.79869 29.5156C-5.18271 22.2074 -1.72477 1.85751 13.6851 0.00854054H13.6873Z" fill="url(#paint0_linear_1176_8665)"/>
<g style="mix-blend-mode:darken">
<path d="M20.5962 27.0737C14.4267 26.4761 8.35557 25.2809 2.47047 23.223C2.31436 23.1691 2.15611 23.1106 2 23.0567C3.44348 25.6224 5.68888 27.8914 8.79609 29.5158C20.2669 35.8579 37.8602 33.7619 44.6542 21.3965C44.6542 21.3965 38.5958 27.7971 26.6802 27.4623C24.6487 27.4376 22.6171 27.2691 20.5984 27.0737H20.5962Z" fill="url(#paint1_linear_1176_8665)"/>
</g>
<path d="M61.4352 32.5891C60.4472 32.8924 59.0315 32.4251 58.916 32.0095C54.0916 17.721 40.1295 7.58431 27.1211 17.8761C31.5178 4.36715 48.3947 -1.25612 60.815 2.644C75.8764 6.98222 76.2185 27.6511 61.4352 32.5869V32.5891Z" fill="url(#paint2_linear_1176_8665)"/>
<g style="mix-blend-mode:darken">
<path d="M49.6824 7.43148C55.8477 6.76649 62.0215 6.71032 68.1739 7.53708C68.3386 7.55954 68.5011 7.58201 68.6658 7.60672C66.7775 5.38257 64.1578 3.60999 60.8111 2.64619C48.3908 -1.25394 31.5139 4.3671 27.1172 17.8783C27.1172 17.8783 31.886 10.3701 43.6412 8.2852C45.6386 7.89878 47.6637 7.65165 49.6803 7.43373L49.6824 7.43148Z" fill="url(#paint3_linear_1176_8665)"/>
</g>
<defs>
<linearGradient id="paint0_linear_1176_8665" x1="43.7942" y1="24.587" x2="0.0843979" y2="12.9078" gradientUnits="userSpaceOnUse">
<stop offset="0.16" stop-color="#DDA07D"/>
<stop offset="0.44" stop-color="#C98E59"/>
<stop offset="1" stop-color="#7C4D24"/>
</linearGradient>
<linearGradient id="paint1_linear_1176_8665" x1="43.1338" y1="29.4387" x2="-1.36997" y2="21.1123" gradientUnits="userSpaceOnUse">
<stop offset="0.11" stop-color="#7C4D24"/>
<stop offset="0.44" stop-color="#C98E59"/>
<stop offset="0.93" stop-color="#DDA07D"/>
</linearGradient>
<linearGradient id="paint2_linear_1176_8665" x1="27.3762" y1="14.5551" x2="72.3479" y2="17.9692" gradientUnits="userSpaceOnUse">
<stop offset="0.16" stop-color="#DDA07D"/>
<stop offset="0.44" stop-color="#C98E59"/>
<stop offset="1" stop-color="#7C4D24"/>
</linearGradient>
<linearGradient id="paint3_linear_1176_8665" x1="27.1193" y1="9.65339" x2="72.314" y2="9.65339" gradientUnits="userSpaceOnUse">
<stop offset="0.11" stop-color="#7C4D24"/>
<stop offset="0.44" stop-color="#C98E59"/>
<stop offset="0.93" stop-color="#DDA07D"/>
</linearGradient>
</defs>
</svg>
