<svg width="339" height="190" viewBox="0 0 339 190" fill="none" xmlns="http://www.w3.org/2000/svg">
<path d="M54.744 91.9381C58.0711 91.9381 60.6796 94.4846 61.5497 98.5814L61.6078 98.8593H65.1586L65.0547 98.4276C63.8429 93.4325 58.8267 90.8196 54.4974 90.8196C48.4826 90.8196 41.9922 95.75 41.9922 103.718C41.9922 111.686 48.8313 116.686 55.1667 116.686C57.6167 116.686 59.9082 115.844 61.9812 114.184L64.2181 116.337H65.0653V105.501H61.5427V113.277C59.8236 114.734 57.8668 115.568 56.1531 115.568C51.1474 115.568 46.0784 111.485 46.0784 103.683C46.0784 100.284 47.0735 97.2041 48.8824 95.0125C50.4958 93.0585 52.6322 91.9381 54.744 91.9381Z" fill="white"/>
<path d="M70.173 91.1692H66.6504V116.337H79.684V114.927L70.173 115.241V91.1692Z" fill="white"/>
<path d="M91.4857 90.8196C85.4709 90.8196 78.9805 95.75 78.9805 103.718C78.9805 111.686 85.4709 116.686 91.4857 116.686C97.5006 116.686 104.026 111.728 104.026 103.718C104.026 95.7081 97.5164 90.8196 91.4857 90.8196ZM83.0667 103.683C83.0667 96.4281 87.4365 91.9381 91.4857 91.9381C95.535 91.9381 99.94 96.2394 99.94 103.438C99.94 110.637 95.5508 115.568 91.4857 115.568C89.4391 115.568 87.3696 114.442 85.8038 112.48C84.555 110.914 83.0667 108.115 83.0667 103.683Z" fill="white"/>
<path d="M118.096 103.085C121.254 101.829 122.462 99.0953 122.208 96.8477C121.888 94.0215 119.288 91.1692 114.205 91.1692H105.434V116.337H115.262C120.535 116.337 123.293 112.908 123.293 109.521C123.293 106.91 121.673 104.073 118.097 103.085H118.096ZM117.143 101.11C116.644 101.838 115.73 102.704 114.205 102.704H108.956V92.2178H114.205C116.921 92.2178 118.159 94.9356 118.159 97.4611C118.159 98.8576 117.798 100.153 117.143 101.11ZM108.956 103.753H115.262C117.972 103.753 119.207 106.743 119.207 109.521C119.207 112.298 117.853 115.288 115.262 115.288H108.956V103.753Z" fill="white"/>
<path d="M130.778 91.1692L131.414 93.2315L124.225 116.337H125.315L129.049 104.277H134.868L138.602 116.337H142.158L134.333 91.1692H130.778ZM129.406 103.229L131.958 94.9811L134.511 103.229H129.405H129.406Z" fill="white"/>
<path d="M146.788 91.1692H143.266V116.337H159.646V114.927L146.788 115.241V91.1692Z" fill="white"/>
<path d="M176.344 91.1692H167.572V116.337H171.095V106.41H176.344C178.818 106.41 180.902 105.586 182.367 104.026C183.667 102.641 184.384 100.782 184.384 98.7894C184.384 95.1191 181.867 91.1692 176.344 91.1692ZM171.095 92.2178H176.344C179.059 92.2178 180.298 95.6242 180.298 98.7894C180.298 100.544 179.931 102.175 179.264 103.379C178.764 104.283 177.851 105.361 176.344 105.361H171.095V92.2178Z" fill="white"/>
<path d="M202.598 98.0344C202.276 94.6175 199.676 91.1692 194.59 91.1692H185.818V116.337H189.341V106.41H193.385L198.317 116.337H201.917L196.9 106.134C201.237 105.095 202.901 101.261 202.598 98.0361V98.0344ZM189.341 92.2178H194.59C197.306 92.2178 198.544 95.6242 198.544 98.7894C198.544 100.544 198.177 102.175 197.51 103.379C197.01 104.283 196.097 105.361 194.59 105.361H189.341V92.2178Z" fill="white"/>
<path d="M216.394 90.8196C210.379 90.8196 203.889 95.75 203.889 103.718C203.889 111.686 210.379 116.686 216.394 116.686C222.409 116.686 228.934 111.728 228.934 103.718C228.934 95.7081 222.425 90.8196 216.394 90.8196ZM207.975 103.683C207.975 96.4281 212.345 91.9381 216.394 91.9381C220.443 91.9381 224.848 96.2394 224.848 103.438C224.848 110.637 220.459 115.568 216.394 115.568C214.347 115.568 212.278 114.442 210.712 112.48C209.463 110.914 207.975 108.115 207.975 103.683Z" fill="white"/>
<path d="M239.115 91.1692H230.344V116.337H233.866V106.41H239.115C241.59 106.41 243.673 105.586 245.139 104.026C246.439 102.641 247.155 100.782 247.155 98.7894C247.155 95.1191 244.638 91.1692 239.115 91.1692ZM233.866 92.2178H239.115C241.831 92.2178 243.069 95.6242 243.069 98.7894C243.069 100.544 242.703 102.175 242.035 103.379C241.535 104.283 240.623 105.361 239.115 105.361H233.866V92.2178Z" fill="white"/>
<path d="M252.114 104.277H259.019V102.863L252.114 103.176V92.2668L260.322 92.5814V91.1692H248.592V116.337H261.625V114.927L252.114 115.241V104.277Z" fill="white"/>
<path d="M279.991 98.0344C279.669 94.6175 277.069 91.1692 271.982 91.1692H263.211V116.337H266.734V106.41H270.778L275.709 116.337H279.309L274.293 106.134C278.629 105.095 280.294 101.261 279.991 98.0361V98.0344ZM266.734 92.2178H271.982C274.698 92.2178 275.936 95.6242 275.936 98.7894C275.936 100.544 275.57 102.175 274.902 103.379C274.402 104.283 273.49 105.361 271.982 105.361H266.734V92.2178Z" fill="white"/>
<path d="M279.344 92.5866L285.086 92.272V116.337H288.608V92.272L294.35 92.5866V91.1692H279.344V92.5866Z" fill="white"/>
<path d="M311.288 91.1692L304.885 103.674L298.618 91.1692H295.008L301.958 104.746V116.337H305.481V104.746L312.431 91.1692H311.288Z" fill="white"/>
<path d="M158.703 56.9131C159.546 56.838 160.621 57.4182 160.651 57.7521C162.389 69.4201 172.142 79.3579 184.21 73.5518C178.614 83.1715 164.126 84.8039 154.676 79.8682C143.161 74.1828 146.009 58.3515 158.701 56.9131H158.703Z" fill="white"/>
<path d="M198.027 82.2591C197.214 82.495 196.048 82.1315 195.953 81.8082C191.979 70.6924 180.48 62.8065 169.766 70.813C173.387 60.3037 187.287 55.9291 197.517 58.9632C209.922 62.3381 210.203 78.4175 198.027 82.2573V82.2591Z" fill="white"/>
</svg>
