<svg width="136" height="59" viewBox="0 0 136 59" fill="none" xmlns="http://www.w3.org/2000/svg">
<path d="M26.2805 0.0151653C28.1897 -0.156374 30.621 1.16807 30.6888 1.93002C34.6228 28.5625 56.6922 51.2456 84.0029 37.9932C71.34 59.9503 38.5528 63.6763 17.1689 52.4105C-8.89024 39.4333 -2.44518 3.29835 26.2765 0.0151653H26.2805Z" fill="url(#paint0_linear_836_5230)"/>
<g style="mix-blend-mode:darken">
<path d="M39.1625 48.0775C27.6634 47.0164 16.3477 44.8941 5.37881 41.2399C5.08785 41.1441 4.79292 41.0404 4.50195 40.9447C7.19237 45.5004 11.3774 49.5296 17.1688 52.4139C38.5487 63.6756 71.3399 59.9536 84.0028 37.9966C84.0028 37.9966 72.711 49.3621 50.5021 48.7677C46.7156 48.7238 42.9291 48.4246 39.1665 48.0775H39.1625Z" fill="url(#paint1_linear_836_5230)"/>
</g>
<path d="M115.272 57.867C113.43 58.4056 110.792 57.5758 110.576 56.8378C101.584 31.4659 75.5611 13.4662 51.3154 31.7412C59.5102 7.75357 90.9662 -2.23161 114.116 4.69379C142.188 12.3971 142.825 49.0986 115.272 57.863V57.867Z" fill="url(#paint2_linear_836_5230)"/>
<g style="mix-blend-mode:darken">
<path d="M93.3736 13.1958C104.865 12.015 116.372 11.9152 127.839 13.3833C128.146 13.4232 128.449 13.4631 128.756 13.507C125.236 9.55756 120.354 6.41 114.116 4.6986C90.9662 -2.22681 59.5102 7.7544 51.3154 31.746C51.3154 31.746 60.2038 18.4138 82.1137 14.7117C85.8365 14.0256 89.611 13.5867 93.3696 13.1998L93.3736 13.1958Z" fill="url(#paint3_linear_836_5230)"/>
</g>
<defs>
<linearGradient id="paint0_linear_836_5230" x1="82.3924" y1="43.6601" x2="1.47272" y2="20.9649" gradientUnits="userSpaceOnUse">
<stop offset="0.16" stop-color="#DDA07D"/>
<stop offset="0.44" stop-color="#C98E59"/>
<stop offset="1" stop-color="#7C4D24"/>
</linearGradient>
<linearGradient id="paint1_linear_836_5230" x1="81.1654" y1="52.2748" x2="-1.49438" y2="36.0418" gradientUnits="userSpaceOnUse">
<stop offset="0.11" stop-color="#7C4D24"/>
<stop offset="0.44" stop-color="#C98E59"/>
<stop offset="0.93" stop-color="#DDA07D"/>
</linearGradient>
<linearGradient id="paint2_linear_836_5230" x1="51.7896" y1="25.845" x2="135.561" y2="32.5204" gradientUnits="userSpaceOnUse">
<stop offset="0.16" stop-color="#DDA07D"/>
<stop offset="0.44" stop-color="#C98E59"/>
<stop offset="1" stop-color="#7C4D24"/>
</linearGradient>
<linearGradient id="paint3_linear_836_5230" x1="51.3194" y1="17.1452" x2="135.555" y2="17.1452" gradientUnits="userSpaceOnUse">
<stop offset="0.11" stop-color="#7C4D24"/>
<stop offset="0.44" stop-color="#C98E59"/>
<stop offset="0.93" stop-color="#DDA07D"/>
</linearGradient>
</defs>
</svg>
