<svg width="94" height="45" viewBox="0 0 94 45" fill="none" xmlns="http://www.w3.org/2000/svg">
<g filter="url(#filter0_d_1598_9300)">
<path d="M18.8563 0.00988083C20.1186 -0.101673 21.7245 0.757795 21.77 1.25387C24.3701 18.5472 38.9532 33.2773 57 24.6708C48.6327 38.9293 26.965 41.3472 12.8373 34.0328C-4.38372 25.6055 -0.124437 2.14123 18.8572 0.00903748L18.8563 0.00988083Z" fill="white"/>
</g>
<g filter="url(#filter1_d_1598_9300)">
<path d="M78.515 37.9382C77.291 38.2878 75.5364 37.7486 75.3938 37.2686C69.4166 20.7649 52.1162 9.0569 36 20.9452C41.4473 5.34049 62.3573 -1.15349 77.7457 3.35192C96.4066 8.36357 96.8302 32.2358 78.515 37.9382Z" fill="white"/>
</g>
<defs>
<filter id="filter0_d_1598_9300" x="0" y="0" width="59" height="44.0508" filterUnits="userSpaceOnUse" color-interpolation-filters="sRGB">
<feFlood flood-opacity="0" result="BackgroundImageFix"/>
<feColorMatrix in="SourceAlpha" type="matrix" values="0 0 0 0 0 0 0 0 0 0 0 0 0 0 0 0 0 0 127 0" result="hardAlpha"/>
<feOffset dy="4"/>
<feGaussianBlur stdDeviation="1"/>
<feComposite in2="hardAlpha" operator="out"/>
<feColorMatrix type="matrix" values="0 0 0 0 0.6 0 0 0 0 0.6 0 0 0 0 0.6 0 0 0 0.2 0"/>
<feBlend mode="normal" in2="BackgroundImageFix" result="effect1_dropShadow_1598_9300"/>
<feBlend mode="normal" in="SourceGraphic" in2="effect1_dropShadow_1598_9300" result="shape"/>
</filter>
<filter id="filter1_d_1598_9300" x="34" y="1.95117" width="60" height="42.0996" filterUnits="userSpaceOnUse" color-interpolation-filters="sRGB">
<feFlood flood-opacity="0" result="BackgroundImageFix"/>
<feColorMatrix in="SourceAlpha" type="matrix" values="0 0 0 0 0 0 0 0 0 0 0 0 0 0 0 0 0 0 127 0" result="hardAlpha"/>
<feOffset dy="4"/>
<feGaussianBlur stdDeviation="1"/>
<feComposite in2="hardAlpha" operator="out"/>
<feColorMatrix type="matrix" values="0 0 0 0 0.6 0 0 0 0 0.6 0 0 0 0 0.6 0 0 0 0.2 0"/>
<feBlend mode="normal" in2="BackgroundImageFix" result="effect1_dropShadow_1598_9300"/>
<feBlend mode="normal" in="SourceGraphic" in2="effect1_dropShadow_1598_9300" result="shape"/>
</filter>
</defs>
</svg>
