<svg width="708" height="190" viewBox="0 0 708 190" fill="none" xmlns="http://www.w3.org/2000/svg">
<path d="M100.296 166.873H96.7227V187.734H109.131V186.692H100.296V166.873Z" fill="#74471F" stroke="#74471F" stroke-width="0.75" stroke-miterlimit="10"/>
<path d="M126.109 180.736C126.109 183.794 124.366 186.77 120.534 186.77C119.335 186.77 118.335 186.584 117.532 186.233C115.273 185.243 114.415 183.097 114.415 180.736V166.873H110.842V180.87C110.842 184.944 113.788 188.244 118.704 188.244H119.363C124.311 188.244 127.225 184.949 127.225 180.87V166.873H126.109V180.736Z" fill="#74471F" stroke="#74471F" stroke-width="0.75" stroke-miterlimit="10"/>
<path d="M148.352 166.873H147.038L140.403 175.16L134.943 166.873H130.715L138.116 178.054L130.369 187.734H131.683L138.687 178.941L144.52 187.734H148.721L141.007 176.043L148.352 166.873Z" fill="#74471F" stroke="#74471F" stroke-width="0.75" stroke-miterlimit="10"/>
<path d="M167.133 180.736C167.133 183.794 165.39 186.77 161.559 186.77C160.36 186.77 159.359 186.584 158.557 186.233C156.297 185.243 155.44 183.097 155.44 180.736V166.873H151.866V180.87C151.866 184.944 154.813 188.244 159.728 188.244H160.387C165.335 188.244 168.249 184.949 168.249 180.87V166.873H167.133V180.736Z" fill="#74471F" stroke="#74471F" stroke-width="0.75" stroke-miterlimit="10"/>
<path d="M186.43 172.825C186.43 169.018 183.599 166.873 179.052 166.873H172.818V187.734H176.392V178.807H178.278L183.567 187.734H187.624L182.105 178.404C184.849 177.626 186.421 175.697 186.421 172.825H186.43ZM178.628 177.76H176.397V167.92H178.628C181.773 167.92 182.889 170.251 182.889 172.829C182.889 175.407 181.773 177.764 178.628 177.764V177.76Z" fill="#74471F" stroke="#74471F" stroke-width="0.75" stroke-miterlimit="10"/>
<path d="M198.354 177.172L191.977 166.873H188.205L195.352 178.002V187.734H198.926V178.028L205.898 166.873H204.726L198.354 177.172Z" fill="#74471F" stroke="#74471F" stroke-width="0.75" stroke-miterlimit="10"/>
<path d="M230.94 172.825C230.94 169.018 228.109 166.873 223.562 166.873H217.328V187.734H220.902V178.807H222.788L228.076 187.734H232.134L226.615 178.404C229.358 177.626 230.931 175.697 230.931 172.825H230.94ZM223.138 177.76H220.906V167.92H223.138C226.283 167.92 227.399 170.251 227.399 172.829C227.399 175.407 226.283 177.764 223.138 177.764V177.76Z" fill="#74471F" stroke="#74471F" stroke-width="0.75" stroke-miterlimit="10"/>
<path d="M235.574 187.734H239.148H247.982V186.692H239.148V176.527H246.378V175.48H239.148V167.92H247.982V166.873H235.574V187.734Z" fill="#74471F" stroke="#74471F" stroke-width="0.75" stroke-miterlimit="10"/>
<path d="M250.556 187.734H251.727L255.015 179.958H261.903L265.163 187.734H268.967L259.764 166.363L250.56 187.734H250.556ZM255.471 178.915L258.5 171.783L261.475 178.915H255.471Z" fill="#74471F" stroke="#74471F" stroke-width="0.75" stroke-miterlimit="10"/>
<path d="M275.686 166.873H272.112V187.734H284.516V186.692H275.686V166.873Z" fill="#74471F" stroke="#74471F" stroke-width="0.75" stroke-miterlimit="10"/>
<path d="M296.522 187.734H300.096H308.931V186.692H300.096V176.527H307.331V175.48H300.096V167.92H308.931V166.873H296.522V187.734Z" fill="#74471F" stroke="#74471F" stroke-width="0.75" stroke-miterlimit="10"/>
<path d="M314.676 170.226C314.676 168.725 315.82 167.41 318.734 167.41C320.85 167.41 322.649 168.4 323.649 169.261L324.392 168.482C323.248 167.518 321.159 166.363 318.729 166.363C314.211 166.363 311.785 168.426 311.785 172.237C311.785 178.755 322.335 179.612 322.335 183.82C322.335 185.991 320.763 187.146 317.849 187.146C314.934 187.146 312.901 185.351 312.901 185.351L312.159 186.13C312.159 186.13 314.247 188.249 317.789 188.249C322.533 188.249 325.392 186.186 325.392 182.509C325.392 176.073 314.672 176.207 314.672 170.23L314.676 170.226Z" fill="#74471F" stroke="#74471F" stroke-width="0.75" stroke-miterlimit="10"/>
<path d="M342.951 166.873H336.233H332.687H325.969V167.92H332.687V187.734H336.233V167.92H342.951V166.873Z" fill="#74471F" stroke="#74471F" stroke-width="0.75" stroke-miterlimit="10"/>
<path d="M341.808 187.734H342.979L346.266 179.958H353.155L356.415 187.734H360.219L351.016 166.363L341.812 187.734H341.808ZM346.723 178.915L349.752 171.783L352.727 178.915H346.723Z" fill="#74471F" stroke="#74471F" stroke-width="0.75" stroke-miterlimit="10"/>
<path d="M365.794 166.873H359.076V167.92H365.794V187.734H369.34V167.92H376.054V166.873H369.34H365.794Z" fill="#74471F" stroke="#74471F" stroke-width="0.75" stroke-miterlimit="10"/>
<path d="M379.489 187.734H383.058H391.893V186.692H383.058V176.527H390.293V175.48H383.058V167.92H391.893V166.873H379.489V187.734Z" fill="#74471F" stroke="#74471F" stroke-width="0.75" stroke-miterlimit="10"/>
<path d="M421.454 183.82C422.856 182.185 423.971 180.2 424.742 177.868L423.626 177.548C422.823 179.802 421.712 181.519 420.398 182.83C420.398 182.83 416.054 178.725 414.367 177.09C416.824 175.801 420.029 174.516 420.029 170.84C420.029 168.854 418.286 166.363 413.827 166.363C408.681 166.363 407.598 169.045 407.598 171.164C407.598 173.604 410.512 175.831 411.513 176.904C409.138 178.111 404.767 179.369 404.767 183.366C404.767 186.398 407.395 188.193 410.655 188.245C414.427 188.327 417.83 187.358 420.43 184.893C421.804 186.285 423.146 187.734 423.146 187.734H425.604C425.604 187.734 422.288 184.599 421.601 183.954L421.458 183.82H421.454ZM410.646 171.514C410.646 170.468 411.333 167.41 413.818 167.41C416.446 167.41 416.907 169.931 416.907 171.03C416.907 173.041 416.423 174.624 413.334 176.125C412.905 175.697 410.646 173.63 410.646 171.514ZM412.449 185.939C410.733 185.939 408.331 185.187 408.331 182.964C408.331 181.303 409.387 179.395 412.591 177.791C414.537 179.668 419.254 183.85 419.254 183.85C419.254 183.85 416.423 185.944 412.453 185.944L412.449 185.939Z" fill="#74471F" stroke="#74471F" stroke-width="0.75" stroke-miterlimit="10"/>
<path d="M442.037 166.873H438.464V187.734H442.037V166.873Z" fill="#74471F" stroke="#74471F" stroke-width="0.75" stroke-miterlimit="10"/>
<path d="M460.703 181.701L446.611 166.363V187.734H447.727V172.799L461.791 188.219L461.818 188.245V166.873H460.703V181.701Z" fill="#74471F" stroke="#74471F" stroke-width="0.75" stroke-miterlimit="10"/>
<path d="M475.112 182.829L468.74 166.873H464.678L473.886 188.244L483.062 166.873H481.886L475.112 182.829Z" fill="#74471F" stroke="#74471F" stroke-width="0.75" stroke-miterlimit="10"/>
<path d="M485.921 187.734H489.494H498.325V186.692H489.494V176.527H496.725V175.48H489.494V167.92H498.325V166.873H485.921V187.734Z" fill="#74471F" stroke="#74471F" stroke-width="0.75" stroke-miterlimit="10"/>
<path d="M504.075 170.226C504.075 168.725 505.218 167.41 508.132 167.41C510.249 167.41 512.047 168.4 513.048 169.261L513.79 168.482C512.647 167.518 510.562 166.363 508.128 166.363C503.614 166.363 501.184 168.426 501.184 172.237C501.184 178.755 511.734 179.612 511.734 183.82C511.734 185.991 510.161 187.146 507.247 187.146C504.333 187.146 502.304 185.351 502.304 185.351L501.562 186.13C501.562 186.13 503.651 188.249 507.192 188.249C511.937 188.249 514.795 186.186 514.795 182.509C514.795 176.073 504.075 176.207 504.075 170.23V170.226Z" fill="#74471F" stroke="#74471F" stroke-width="0.75" stroke-miterlimit="10"/>
<path d="M522.085 166.873H515.367V167.92H522.085V187.734H525.627V167.92H532.345V166.873H525.627H522.085Z" fill="#74471F" stroke="#74471F" stroke-width="0.75" stroke-miterlimit="10"/>
<path d="M535.779 166.363V187.734H536.863V174.867L545.011 188.245L552.444 174.81V187.734H556.017V166.363L546.468 183.474L535.779 166.363Z" fill="#74471F" stroke="#74471F" stroke-width="0.75" stroke-miterlimit="10"/>
<path d="M560.592 187.734H564.165H573V186.692H564.165V176.527H571.4V175.48H564.165V167.92H573V166.873H560.592V187.734Z" fill="#74471F" stroke="#74471F" stroke-width="0.75" stroke-miterlimit="10"/>
<path d="M590.522 181.701L576.431 166.363V187.734H577.546V172.799L591.61 188.219L591.638 188.245V166.873H590.522V181.701Z" fill="#74471F" stroke="#74471F" stroke-width="0.75" stroke-miterlimit="10"/>
<path d="M605.333 166.873H601.787H595.068V167.92H601.787V187.734H605.333V167.92H612.051V166.873H605.333Z" fill="#74471F" stroke="#74471F" stroke-width="0.75" stroke-miterlimit="10"/>
<path d="M33.3838 86.6955C42.094 86.6955 48.923 92.9975 51.2008 103.136L51.353 103.824H60.6488L60.3768 102.755C57.2044 90.3936 44.0722 83.9272 32.7383 83.9272C16.9916 83.9272 0 96.129 0 115.848C0 135.567 17.9046 147.942 34.4905 147.942C40.9044 147.942 46.9034 145.857 52.3305 141.748L58.1865 147.077H60.4044V120.26H51.1824V139.503C46.682 143.111 41.5592 145.174 37.0726 145.174C23.9681 145.174 10.6976 135.07 10.6976 115.762C10.6976 107.349 13.3028 99.7277 18.0383 94.3037C22.262 89.468 27.8552 86.6955 33.3838 86.6955Z" fill="#74471F"/>
<path d="M73.7767 84.792H64.5547V147.077H98.6763V143.586L73.7767 144.365V84.792Z" fill="#74471F"/>
<path d="M129.57 83.9272C113.824 83.9272 96.832 96.129 96.832 115.848C96.832 135.567 113.824 147.942 129.57 147.942C145.317 147.942 162.401 135.671 162.401 115.848C162.401 96.0252 145.358 83.9272 129.57 83.9272ZM107.53 115.762C107.53 97.8072 118.97 86.6955 129.57 86.6955C140.171 86.6955 151.703 97.3401 151.703 115.156C151.703 132.972 140.213 145.174 129.57 145.174C124.212 145.174 118.794 142.388 114.695 137.531C111.426 133.656 107.53 126.731 107.53 115.762Z" fill="#74471F"/>
<path d="M199.239 114.282C207.506 111.172 210.669 104.407 210.005 98.845C209.166 91.8509 202.36 84.792 189.053 84.792H166.09V147.077H191.819C205.625 147.077 212.846 138.59 212.846 130.208C212.846 123.746 208.604 116.726 199.243 114.282H199.239ZM196.744 109.394C195.439 111.194 193.046 113.339 189.053 113.339H175.312V87.3872H189.053C196.163 87.3872 199.404 94.1131 199.404 100.363C199.404 103.819 198.459 107.024 196.744 109.394ZM175.312 115.934H191.819C198.916 115.934 202.148 123.335 202.148 130.208C202.148 137.081 198.602 144.482 191.819 144.482H175.312V115.934Z" fill="#74471F"/>
<path d="M232.437 84.792L234.101 89.8959L215.279 147.077H218.133L227.909 117.232H243.144L252.919 147.077H262.229L241.742 84.792H232.437ZM228.845 114.637L235.526 94.2255L242.208 114.637H228.84H228.845Z" fill="#74471F"/>
<path d="M274.351 84.792H265.129V147.077H308.011V143.586L274.351 144.365V84.792Z" fill="#74471F"/>
<path d="M351.725 84.792H328.762V147.077H337.984V122.509H351.725C358.203 122.509 363.658 120.472 367.494 116.609C370.897 113.183 372.774 108.581 372.774 103.65C372.774 94.5672 366.185 84.792 351.725 84.792ZM337.984 87.3872H351.725C358.835 87.3872 362.076 95.8173 362.076 103.65C362.076 107.993 361.117 112.029 359.37 115.009C358.06 117.245 355.672 119.914 351.725 119.914H337.984V87.3872Z" fill="#74471F"/>
<path d="M420.46 101.787C419.617 93.3305 412.811 84.7966 399.494 84.7966H376.531V147.081H385.753V122.514H396.34L409.251 147.081H418.676L405.544 121.83C416.896 119.261 421.254 109.771 420.46 101.791V101.787ZM385.753 87.3875H399.494C406.604 87.3875 409.846 95.8176 409.846 103.651C409.846 107.993 408.887 112.029 407.139 115.009C405.83 117.245 403.441 119.914 399.494 119.914H385.753V87.3875Z" fill="#74471F"/>
<path d="M456.579 83.9272C440.832 83.9272 423.841 96.129 423.841 115.848C423.841 135.567 440.832 147.942 456.579 147.942C472.326 147.942 489.41 135.671 489.41 115.848C489.41 96.0252 472.367 83.9272 456.579 83.9272ZM434.538 115.762C434.538 97.8072 445.978 86.6955 456.579 86.6955C467.18 86.6955 478.712 97.3401 478.712 115.156C478.712 132.972 467.221 145.174 456.579 145.174C451.221 145.174 445.803 142.388 441.704 137.531C438.435 133.656 434.538 126.731 434.538 115.762Z" fill="#74471F"/>
<path d="M516.062 84.792H493.099V147.077H502.321V122.509H516.062C522.54 122.509 527.995 120.472 531.831 116.609C535.234 113.183 537.111 108.581 537.111 103.65C537.111 94.5672 530.522 84.792 516.062 84.792ZM502.321 87.3872H516.062C523.172 87.3872 526.413 95.8173 526.413 103.65C526.413 107.993 525.454 112.029 523.707 115.009C522.397 117.245 520.009 119.914 516.062 119.914H502.321V87.3872Z" fill="#74471F"/>
<path d="M550.09 117.232H568.165V113.733L550.09 114.511V87.5083L571.578 88.2869V84.792H540.868V147.077H574.99V143.586L550.09 144.365V117.232Z" fill="#74471F"/>
<path d="M623.07 101.787C622.226 93.3305 615.42 84.7966 602.103 84.7966H579.141V147.081H588.363V122.514H598.95L611.86 147.081H621.285L608.153 121.83C619.506 119.261 623.863 109.771 623.07 101.791V101.787ZM588.363 87.3875H602.103C609.214 87.3875 612.455 95.8176 612.455 103.651C612.455 107.993 611.496 112.029 609.749 115.009C608.439 117.245 606.051 119.914 602.103 119.914H588.363V87.3875Z" fill="#74471F"/>
<path d="M621.377 88.2998L636.409 87.5213V147.077H645.631V87.5213L660.663 88.2998V84.792H621.377V88.2998Z" fill="#74471F"/>
<path d="M705.007 84.792L688.246 115.74L671.84 84.792H662.388L680.583 118.391V147.077H689.805V118.391L708 84.792H705.007Z" fill="#74471F"/>
<path d="M305.738 0.0164428C307.947 -0.169546 310.76 1.26646 310.838 2.0926C315.389 30.9685 340.92 55.5623 372.515 41.1936C357.866 65.0002 319.936 69.04 295.197 56.8253C265.051 42.755 272.507 3.57619 305.734 0.0164428H305.738Z" fill="url(#paint0_linear_499_2107)"/>
<g style="mix-blend-mode:darken">
<path d="M320.641 52.1286C307.339 50.9781 294.248 48.677 281.558 44.715C281.222 44.6112 280.881 44.4987 280.544 44.3949C283.656 49.3344 288.498 53.703 295.198 56.8302C319.931 69.0406 357.866 65.0051 372.515 41.1985C372.515 41.1985 359.452 53.5213 333.76 52.8769C329.379 52.8293 324.999 52.5049 320.646 52.1286H320.641Z" fill="url(#paint1_linear_499_2107)"/>
</g>
<path d="M408.689 62.7432C406.558 63.3271 403.506 62.4275 403.257 61.6273C392.854 34.1182 362.749 14.6023 334.7 34.4167C344.18 8.40847 380.571 -2.41782 407.352 5.09095C439.827 13.4432 440.565 53.2362 408.689 62.7389V62.7432Z" fill="url(#paint2_linear_499_2107)"/>
<g style="mix-blend-mode:darken">
<path d="M383.356 14.3078C396.649 13.0275 409.961 12.9193 423.227 14.5111C423.582 14.5543 423.933 14.5976 424.288 14.6451C420.216 10.3631 414.568 6.95038 407.352 5.09482C380.571 -2.41395 344.18 8.40803 334.7 34.4205C334.7 34.4205 344.983 19.9653 370.33 15.9514C374.636 15.2074 379.003 14.7316 383.351 14.3121L383.356 14.3078Z" fill="url(#paint3_linear_499_2107)"/>
</g>
<defs>
<linearGradient id="paint0_linear_499_2107" x1="370.652" y1="47.3378" x2="277.975" y2="19.604" gradientUnits="userSpaceOnUse">
<stop offset="0.16" stop-color="#DDA07D"/>
<stop offset="0.44" stop-color="#C98E59"/>
<stop offset="1" stop-color="#7C4D24"/>
</linearGradient>
<linearGradient id="paint1_linear_499_2107" x1="369.233" y1="56.6794" x2="274.096" y2="36.7446" gradientUnits="userSpaceOnUse">
<stop offset="0.11" stop-color="#7C4D24"/>
<stop offset="0.44" stop-color="#C98E59"/>
<stop offset="0.93" stop-color="#DDA07D"/>
</linearGradient>
<linearGradient id="paint2_linear_499_2107" x1="335.249" y1="28.0238" x2="432.076" y2="36.2564" gradientUnits="userSpaceOnUse">
<stop offset="0.16" stop-color="#DDA07D"/>
<stop offset="0.44" stop-color="#C98E59"/>
<stop offset="1" stop-color="#7C4D24"/>
</linearGradient>
<linearGradient id="paint3_linear_499_2107" x1="334.705" y1="18.5898" x2="432.154" y2="18.5898" gradientUnits="userSpaceOnUse">
<stop offset="0.11" stop-color="#7C4D24"/>
<stop offset="0.44" stop-color="#C98E59"/>
<stop offset="0.93" stop-color="#DDA07D"/>
</linearGradient>
</defs>
</svg>
