<svg width="22" height="22" viewBox="0 0 22 22" fill="none" xmlns="http://www.w3.org/2000/svg">
<path d="M14.375 7.625C14.375 7.625 10.7975 11.435 9.875 14.375L7.625 12.125M20.375 11C20.375 13.4864 19.3873 15.871 17.6291 17.6291C15.871 19.3873 13.4864 20.375 11 20.375C8.5136 20.375 6.12903 19.3873 4.37087 17.6291C2.61272 15.871 1.625 13.4864 1.625 11C1.625 8.5136 2.61272 6.12903 4.37087 4.37087C6.12903 2.61272 8.5136 1.625 11 1.625C13.4864 1.625 15.871 2.61272 17.6291 4.37087C19.3873 6.12903 20.375 8.5136 20.375 11Z" stroke="white" stroke-width="2.25" stroke-linecap="round" stroke-linejoin="round"/>
</svg>
